<mxfile host="Electron" agent="Mozilla/5.0 (Windows NT 10.0; Win64; x64) AppleWebKit/537.36 (KHTML, like Gecko) draw.io/26.0.9 Chrome/128.0.6613.186 Electron/32.2.5 Safari/537.36" version="26.0.9">
  <diagram name="Page-1" id="-H_mtQnk-PTXWXPvYvuk">
    <mxGraphModel dx="5180" dy="4337" grid="1" gridSize="10" guides="1" tooltips="1" connect="1" arrows="1" fold="1" page="1" pageScale="1" pageWidth="1169" pageHeight="827" math="0" shadow="0">
      <root>
        <mxCell id="0" />
        <mxCell id="1" parent="0" />
        <mxCell id="EjMGW613WOTaDOuK8E_c-1" value="" style="rounded=0;whiteSpace=wrap;html=1;fillColor=none;dashed=1;" parent="1" vertex="1">
          <mxGeometry x="1520" y="380" width="610" height="418.5" as="geometry" />
        </mxCell>
        <mxCell id="3LPpduyYCGpr62enKzP0-21" value="&lt;font style=&quot;font-size: 55px;&quot;&gt;1&lt;/font&gt;" style="text;strokeColor=none;align=center;fillColor=none;html=1;verticalAlign=middle;whiteSpace=wrap;rounded=0;" parent="1" vertex="1">
          <mxGeometry x="230" y="250" width="60" height="30" as="geometry" />
        </mxCell>
        <mxCell id="3LPpduyYCGpr62enKzP0-23" value="&lt;font style=&quot;font-size: 11px;&quot;&gt;Primary Server&lt;/font&gt;" style="shape=cylinder3;whiteSpace=wrap;html=1;boundedLbl=1;backgroundOutline=1;size=15;" parent="1" vertex="1">
          <mxGeometry x="1005" y="601.5" width="55" height="60" as="geometry" />
        </mxCell>
        <mxCell id="3LPpduyYCGpr62enKzP0-24" value="pymongo-api" style="rounded=1;whiteSpace=wrap;html=1;" parent="1" vertex="1">
          <mxGeometry x="1080" y="251.5" width="120" height="60" as="geometry" />
        </mxCell>
        <mxCell id="3LPpduyYCGpr62enKzP0-25" style="edgeStyle=orthogonalEdgeStyle;rounded=0;orthogonalLoop=1;jettySize=auto;html=1;exitX=0.5;exitY=1;exitDx=0;exitDy=0;entryX=0.5;entryY=0;entryDx=0;entryDy=0;" parent="1" source="3LPpduyYCGpr62enKzP0-24" target="3LPpduyYCGpr62enKzP0-28" edge="1">
          <mxGeometry relative="1" as="geometry">
            <mxPoint x="1140" y="321.5" as="sourcePoint" />
            <mxPoint x="970" y="371.5" as="targetPoint" />
          </mxGeometry>
        </mxCell>
        <mxCell id="3LPpduyYCGpr62enKzP0-26" style="edgeStyle=orthogonalEdgeStyle;rounded=0;orthogonalLoop=1;jettySize=auto;html=1;exitX=0;exitY=0.5;exitDx=0;exitDy=0;entryX=0.5;entryY=0;entryDx=0;entryDy=0;" parent="1" source="3LPpduyYCGpr62enKzP0-28" target="3LPpduyYCGpr62enKzP0-31" edge="1">
          <mxGeometry relative="1" as="geometry" />
        </mxCell>
        <mxCell id="3LPpduyYCGpr62enKzP0-27" style="edgeStyle=orthogonalEdgeStyle;rounded=0;orthogonalLoop=1;jettySize=auto;html=1;entryX=0.5;entryY=0;entryDx=0;entryDy=0;" parent="1" source="3LPpduyYCGpr62enKzP0-28" target="3LPpduyYCGpr62enKzP0-34" edge="1">
          <mxGeometry relative="1" as="geometry" />
        </mxCell>
        <mxCell id="3LPpduyYCGpr62enKzP0-28" value="Driver" style="rounded=1;whiteSpace=wrap;html=1;fillColor=#dae8fc;strokeColor=#6c8ebf;" parent="1" vertex="1">
          <mxGeometry x="1100" y="401.5" width="80" height="30" as="geometry" />
        </mxCell>
        <mxCell id="3LPpduyYCGpr62enKzP0-29" style="edgeStyle=orthogonalEdgeStyle;rounded=0;orthogonalLoop=1;jettySize=auto;html=1;entryX=0;entryY=0.5;entryDx=0;entryDy=0;endArrow=none;startFill=0;dashed=1;" parent="1" source="3LPpduyYCGpr62enKzP0-31" target="3LPpduyYCGpr62enKzP0-34" edge="1">
          <mxGeometry relative="1" as="geometry" />
        </mxCell>
        <mxCell id="3LPpduyYCGpr62enKzP0-30" style="edgeStyle=orthogonalEdgeStyle;rounded=0;orthogonalLoop=1;jettySize=auto;html=1;exitX=0.5;exitY=1;exitDx=0;exitDy=0;entryX=0.5;entryY=0;entryDx=0;entryDy=0;" parent="1" source="3LPpduyYCGpr62enKzP0-31" target="3LPpduyYCGpr62enKzP0-39" edge="1">
          <mxGeometry relative="1" as="geometry" />
        </mxCell>
        <mxCell id="3LPpduyYCGpr62enKzP0-31" value="Router" style="rounded=1;whiteSpace=wrap;html=1;fillColor=#dae8fc;strokeColor=#6c8ebf;" parent="1" vertex="1">
          <mxGeometry x="1000" y="461.5" width="80" height="30" as="geometry" />
        </mxCell>
        <mxCell id="3LPpduyYCGpr62enKzP0-32" style="edgeStyle=orthogonalEdgeStyle;rounded=0;orthogonalLoop=1;jettySize=auto;html=1;exitX=0.5;exitY=1;exitDx=0;exitDy=0;entryX=0.5;entryY=0;entryDx=0;entryDy=0;" parent="1" source="3LPpduyYCGpr62enKzP0-34" target="3LPpduyYCGpr62enKzP0-42" edge="1">
          <mxGeometry relative="1" as="geometry">
            <mxPoint x="1240" y="521.5" as="targetPoint" />
          </mxGeometry>
        </mxCell>
        <mxCell id="3LPpduyYCGpr62enKzP0-33" style="edgeStyle=orthogonalEdgeStyle;rounded=0;orthogonalLoop=1;jettySize=auto;html=1;entryX=0;entryY=0.5;entryDx=0;entryDy=0;" parent="1" source="3LPpduyYCGpr62enKzP0-34" target="3LPpduyYCGpr62enKzP0-43" edge="1">
          <mxGeometry relative="1" as="geometry" />
        </mxCell>
        <mxCell id="3LPpduyYCGpr62enKzP0-34" value="Router" style="rounded=1;whiteSpace=wrap;html=1;fillColor=#dae8fc;strokeColor=#6c8ebf;" parent="1" vertex="1">
          <mxGeometry x="1200" y="461.5" width="80" height="30" as="geometry" />
        </mxCell>
        <mxCell id="3LPpduyYCGpr62enKzP0-35" style="edgeStyle=orthogonalEdgeStyle;rounded=0;orthogonalLoop=1;jettySize=auto;html=1;dashed=1;endArrow=none;endFill=1;startFill=0;" parent="1" source="3LPpduyYCGpr62enKzP0-36" target="3LPpduyYCGpr62enKzP0-23" edge="1">
          <mxGeometry relative="1" as="geometry" />
        </mxCell>
        <mxCell id="3LPpduyYCGpr62enKzP0-36" value="&lt;font style=&quot;font-size: 11px;&quot;&gt;Primary Server&lt;/font&gt;" style="shape=cylinder3;whiteSpace=wrap;html=1;boundedLbl=1;backgroundOutline=1;size=15;" parent="1" vertex="1">
          <mxGeometry x="1205" y="601.5" width="55" height="60" as="geometry" />
        </mxCell>
        <mxCell id="3LPpduyYCGpr62enKzP0-37" style="edgeStyle=orthogonalEdgeStyle;rounded=0;orthogonalLoop=1;jettySize=auto;html=1;entryX=0.5;entryY=1;entryDx=0;entryDy=0;" parent="1" source="3LPpduyYCGpr62enKzP0-39" target="3LPpduyYCGpr62enKzP0-31" edge="1">
          <mxGeometry relative="1" as="geometry" />
        </mxCell>
        <mxCell id="3LPpduyYCGpr62enKzP0-38" style="edgeStyle=orthogonalEdgeStyle;rounded=0;orthogonalLoop=1;jettySize=auto;html=1;" parent="1" source="3LPpduyYCGpr62enKzP0-39" edge="1">
          <mxGeometry relative="1" as="geometry">
            <mxPoint x="1240" y="491.5" as="targetPoint" />
            <Array as="points">
              <mxPoint x="1040" y="531.5" />
              <mxPoint x="1240" y="531.5" />
            </Array>
          </mxGeometry>
        </mxCell>
        <mxCell id="3LPpduyYCGpr62enKzP0-39" value="shard1-1" style="rounded=1;whiteSpace=wrap;html=1;fillColor=#dae8fc;strokeColor=#6c8ebf;" parent="1" vertex="1">
          <mxGeometry x="1000" y="571.5" width="80" height="30" as="geometry" />
        </mxCell>
        <mxCell id="3LPpduyYCGpr62enKzP0-40" style="edgeStyle=orthogonalEdgeStyle;rounded=0;orthogonalLoop=1;jettySize=auto;html=1;entryX=0.5;entryY=1;entryDx=0;entryDy=0;" parent="1" source="3LPpduyYCGpr62enKzP0-42" target="3LPpduyYCGpr62enKzP0-34" edge="1">
          <mxGeometry relative="1" as="geometry" />
        </mxCell>
        <mxCell id="3LPpduyYCGpr62enKzP0-41" style="edgeStyle=orthogonalEdgeStyle;rounded=0;orthogonalLoop=1;jettySize=auto;html=1;entryX=0.5;entryY=1;entryDx=0;entryDy=0;" parent="1" source="3LPpduyYCGpr62enKzP0-42" target="3LPpduyYCGpr62enKzP0-43" edge="1">
          <mxGeometry relative="1" as="geometry" />
        </mxCell>
        <mxCell id="3LPpduyYCGpr62enKzP0-42" value="shard1-2" style="rounded=1;whiteSpace=wrap;html=1;fillColor=#dae8fc;strokeColor=#6c8ebf;" parent="1" vertex="1">
          <mxGeometry x="1200" y="571.5" width="80" height="30" as="geometry" />
        </mxCell>
        <mxCell id="3LPpduyYCGpr62enKzP0-43" value="configSrv" style="rounded=1;whiteSpace=wrap;html=1;fillColor=#f8cecc;strokeColor=#b85450;" parent="1" vertex="1">
          <mxGeometry x="1380" y="431.5" width="80" height="30" as="geometry" />
        </mxCell>
        <mxCell id="3LPpduyYCGpr62enKzP0-44" value="&lt;font style=&quot;font-size: 55px;&quot;&gt;2&lt;/font&gt;" style="text;strokeColor=none;align=center;fillColor=none;html=1;verticalAlign=middle;whiteSpace=wrap;rounded=0;" parent="1" vertex="1">
          <mxGeometry x="950" y="211.5" width="60" height="30" as="geometry" />
        </mxCell>
        <mxCell id="3LPpduyYCGpr62enKzP0-45" value="&lt;p style=&quot;margin: 0px 0px 0px 13px; text-indent: -13px; font-variant-numeric: normal; font-variant-east-asian: normal; font-variant-alternates: normal; font-kerning: auto; font-optical-sizing: auto; font-feature-settings: normal; font-variation-settings: normal; font-variant-position: normal; font-stretch: normal; line-height: normal; color: rgb(14, 14, 14); text-align: start;&quot; class=&quot;p1&quot;&gt;&lt;font style=&quot;font-size: 9px;&quot;&gt;pymongo driver&lt;/font&gt;&lt;/p&gt;" style="rounded=1;whiteSpace=wrap;html=1;fillColor=#FF77BF;strokeColor=none;arcSize=50;" parent="1" vertex="1">
          <mxGeometry x="1150" y="385.5" width="70" height="20" as="geometry" />
        </mxCell>
        <mxCell id="3LPpduyYCGpr62enKzP0-46" value="&lt;p style=&quot;margin: 0px 0px 0px 13px; text-indent: -13px; font-variant-numeric: normal; font-variant-east-asian: normal; font-variant-alternates: normal; font-kerning: auto; font-optical-sizing: auto; font-feature-settings: normal; font-variation-settings: normal; font-variant-position: normal; font-stretch: normal; line-height: normal; color: rgb(14, 14, 14); text-align: start;&quot; class=&quot;p1&quot;&gt;&lt;font style=&quot;font-size: 9px;&quot;&gt;mongos&lt;/font&gt;&lt;/p&gt;" style="rounded=1;whiteSpace=wrap;html=1;fillColor=#FF77BF;strokeColor=none;arcSize=50;" parent="1" vertex="1">
          <mxGeometry x="1050" y="449" width="50" height="15" as="geometry" />
        </mxCell>
        <mxCell id="3LPpduyYCGpr62enKzP0-47" value="&lt;p style=&quot;margin: 0px 0px 0px 13px; text-indent: -13px; font-variant-numeric: normal; font-variant-east-asian: normal; font-variant-alternates: normal; font-kerning: auto; font-optical-sizing: auto; font-feature-settings: normal; font-variation-settings: normal; font-variant-position: normal; font-stretch: normal; line-height: normal; color: rgb(14, 14, 14); text-align: start;&quot; class=&quot;p1&quot;&gt;&lt;font style=&quot;font-size: 9px;&quot;&gt;mongos&lt;/font&gt;&lt;/p&gt;" style="rounded=1;whiteSpace=wrap;html=1;fillColor=#FF77BF;strokeColor=none;arcSize=50;" parent="1" vertex="1">
          <mxGeometry x="1250" y="446.5" width="50" height="15" as="geometry" />
        </mxCell>
        <mxCell id="3LPpduyYCGpr62enKzP0-48" value="&lt;p style=&quot;margin: 0px 0px 0px 13px; text-indent: -13px; font-variant-numeric: normal; font-variant-east-asian: normal; font-variant-alternates: normal; font-kerning: auto; font-optical-sizing: auto; font-feature-settings: normal; font-variation-settings: normal; font-variant-position: normal; font-stretch: normal; line-height: normal; color: rgb(14, 14, 14); text-align: start;&quot; class=&quot;p1&quot;&gt;&lt;font style=&quot;font-size: 9px;&quot;&gt;mongod&lt;/font&gt;&lt;/p&gt;" style="rounded=1;whiteSpace=wrap;html=1;fillColor=#FF77BF;strokeColor=none;arcSize=50;" parent="1" vertex="1">
          <mxGeometry x="1410" y="416.5" width="50" height="15" as="geometry" />
        </mxCell>
        <mxCell id="3LPpduyYCGpr62enKzP0-49" value="&lt;p style=&quot;margin: 0px 0px 0px 13px; text-indent: -13px; font-variant-numeric: normal; font-variant-east-asian: normal; font-variant-alternates: normal; font-kerning: auto; font-optical-sizing: auto; font-feature-settings: normal; font-variation-settings: normal; font-variant-position: normal; font-stretch: normal; line-height: normal; color: rgb(14, 14, 14); text-align: start;&quot; class=&quot;p1&quot;&gt;&lt;font style=&quot;font-size: 9px;&quot;&gt;mongod&lt;/font&gt;&lt;/p&gt;" style="rounded=1;whiteSpace=wrap;html=1;fillColor=#FF77BF;strokeColor=none;arcSize=50;" parent="1" vertex="1">
          <mxGeometry x="1050" y="556.5" width="50" height="15" as="geometry" />
        </mxCell>
        <mxCell id="3LPpduyYCGpr62enKzP0-51" value="&lt;p style=&quot;margin: 0px 0px 0px 13px; text-indent: -13px; font-variant-numeric: normal; font-variant-east-asian: normal; font-variant-alternates: normal; font-kerning: auto; font-optical-sizing: auto; font-feature-settings: normal; font-variation-settings: normal; font-variant-position: normal; font-stretch: normal; line-height: normal; color: rgb(14, 14, 14); text-align: start;&quot; class=&quot;p1&quot;&gt;&lt;font style=&quot;font-size: 9px;&quot;&gt;mongod&lt;/font&gt;&lt;/p&gt;" style="rounded=1;whiteSpace=wrap;html=1;fillColor=#FF77BF;strokeColor=none;arcSize=50;" parent="1" vertex="1">
          <mxGeometry x="1250" y="556.5" width="50" height="15" as="geometry" />
        </mxCell>
        <mxCell id="3LPpduyYCGpr62enKzP0-52" value="Primary Server" style="shape=cylinder3;whiteSpace=wrap;html=1;boundedLbl=1;backgroundOutline=1;size=15;" parent="1" vertex="1">
          <mxGeometry x="265" y="650" width="70" height="80" as="geometry" />
        </mxCell>
        <mxCell id="3LPpduyYCGpr62enKzP0-53" value="pymongo-api" style="rounded=1;whiteSpace=wrap;html=1;" parent="1" vertex="1">
          <mxGeometry x="340" y="300" width="120" height="60" as="geometry" />
        </mxCell>
        <mxCell id="3LPpduyYCGpr62enKzP0-54" style="edgeStyle=orthogonalEdgeStyle;rounded=0;orthogonalLoop=1;jettySize=auto;html=1;exitX=0.5;exitY=1;exitDx=0;exitDy=0;entryX=0.5;entryY=0;entryDx=0;entryDy=0;" parent="1" source="3LPpduyYCGpr62enKzP0-53" target="3LPpduyYCGpr62enKzP0-57" edge="1">
          <mxGeometry relative="1" as="geometry">
            <mxPoint x="400" y="370" as="sourcePoint" />
            <mxPoint x="230" y="420" as="targetPoint" />
          </mxGeometry>
        </mxCell>
        <mxCell id="3LPpduyYCGpr62enKzP0-55" style="edgeStyle=orthogonalEdgeStyle;rounded=0;orthogonalLoop=1;jettySize=auto;html=1;exitX=0;exitY=0.5;exitDx=0;exitDy=0;entryX=0.5;entryY=0;entryDx=0;entryDy=0;" parent="1" source="3LPpduyYCGpr62enKzP0-57" target="3LPpduyYCGpr62enKzP0-60" edge="1">
          <mxGeometry relative="1" as="geometry" />
        </mxCell>
        <mxCell id="3LPpduyYCGpr62enKzP0-56" style="edgeStyle=orthogonalEdgeStyle;rounded=0;orthogonalLoop=1;jettySize=auto;html=1;entryX=0.5;entryY=0;entryDx=0;entryDy=0;" parent="1" source="3LPpduyYCGpr62enKzP0-57" target="3LPpduyYCGpr62enKzP0-63" edge="1">
          <mxGeometry relative="1" as="geometry" />
        </mxCell>
        <mxCell id="3LPpduyYCGpr62enKzP0-57" value="Driver" style="rounded=1;whiteSpace=wrap;html=1;fillColor=#dae8fc;strokeColor=#6c8ebf;" parent="1" vertex="1">
          <mxGeometry x="360" y="450" width="80" height="30" as="geometry" />
        </mxCell>
        <mxCell id="3LPpduyYCGpr62enKzP0-58" style="edgeStyle=orthogonalEdgeStyle;rounded=0;orthogonalLoop=1;jettySize=auto;html=1;entryX=0;entryY=0.5;entryDx=0;entryDy=0;endArrow=none;startFill=0;dashed=1;" parent="1" source="3LPpduyYCGpr62enKzP0-60" target="3LPpduyYCGpr62enKzP0-63" edge="1">
          <mxGeometry relative="1" as="geometry" />
        </mxCell>
        <mxCell id="3LPpduyYCGpr62enKzP0-59" style="edgeStyle=orthogonalEdgeStyle;rounded=0;orthogonalLoop=1;jettySize=auto;html=1;exitX=0.5;exitY=1;exitDx=0;exitDy=0;entryX=0.5;entryY=0;entryDx=0;entryDy=0;" parent="1" source="3LPpduyYCGpr62enKzP0-60" target="3LPpduyYCGpr62enKzP0-68" edge="1">
          <mxGeometry relative="1" as="geometry" />
        </mxCell>
        <mxCell id="3LPpduyYCGpr62enKzP0-60" value="Router" style="rounded=1;whiteSpace=wrap;html=1;fillColor=#dae8fc;strokeColor=#6c8ebf;" parent="1" vertex="1">
          <mxGeometry x="260" y="510" width="80" height="30" as="geometry" />
        </mxCell>
        <mxCell id="3LPpduyYCGpr62enKzP0-61" style="edgeStyle=orthogonalEdgeStyle;rounded=0;orthogonalLoop=1;jettySize=auto;html=1;exitX=0.5;exitY=1;exitDx=0;exitDy=0;entryX=0.5;entryY=0;entryDx=0;entryDy=0;" parent="1" source="3LPpduyYCGpr62enKzP0-63" target="3LPpduyYCGpr62enKzP0-71" edge="1">
          <mxGeometry relative="1" as="geometry">
            <mxPoint x="500" y="570" as="targetPoint" />
          </mxGeometry>
        </mxCell>
        <mxCell id="3LPpduyYCGpr62enKzP0-62" style="edgeStyle=orthogonalEdgeStyle;rounded=0;orthogonalLoop=1;jettySize=auto;html=1;entryX=0;entryY=0.5;entryDx=0;entryDy=0;" parent="1" source="3LPpduyYCGpr62enKzP0-63" target="3LPpduyYCGpr62enKzP0-72" edge="1">
          <mxGeometry relative="1" as="geometry" />
        </mxCell>
        <mxCell id="3LPpduyYCGpr62enKzP0-63" value="Router" style="rounded=1;whiteSpace=wrap;html=1;fillColor=#dae8fc;strokeColor=#6c8ebf;" parent="1" vertex="1">
          <mxGeometry x="460" y="510" width="80" height="30" as="geometry" />
        </mxCell>
        <mxCell id="3LPpduyYCGpr62enKzP0-64" style="edgeStyle=orthogonalEdgeStyle;rounded=0;orthogonalLoop=1;jettySize=auto;html=1;dashed=1;endArrow=none;endFill=1;startFill=0;" parent="1" source="3LPpduyYCGpr62enKzP0-65" target="3LPpduyYCGpr62enKzP0-52" edge="1">
          <mxGeometry relative="1" as="geometry" />
        </mxCell>
        <mxCell id="3LPpduyYCGpr62enKzP0-65" value="Primary Server" style="shape=cylinder3;whiteSpace=wrap;html=1;boundedLbl=1;backgroundOutline=1;size=15;" parent="1" vertex="1">
          <mxGeometry x="465" y="650" width="70" height="80" as="geometry" />
        </mxCell>
        <mxCell id="3LPpduyYCGpr62enKzP0-66" style="edgeStyle=orthogonalEdgeStyle;rounded=0;orthogonalLoop=1;jettySize=auto;html=1;entryX=0.5;entryY=1;entryDx=0;entryDy=0;" parent="1" source="3LPpduyYCGpr62enKzP0-68" target="3LPpduyYCGpr62enKzP0-60" edge="1">
          <mxGeometry relative="1" as="geometry" />
        </mxCell>
        <mxCell id="3LPpduyYCGpr62enKzP0-67" style="edgeStyle=orthogonalEdgeStyle;rounded=0;orthogonalLoop=1;jettySize=auto;html=1;" parent="1" source="3LPpduyYCGpr62enKzP0-68" edge="1">
          <mxGeometry relative="1" as="geometry">
            <mxPoint x="500" y="540" as="targetPoint" />
            <Array as="points">
              <mxPoint x="300" y="580" />
              <mxPoint x="500" y="580" />
            </Array>
          </mxGeometry>
        </mxCell>
        <mxCell id="3LPpduyYCGpr62enKzP0-68" value="shard1-1" style="rounded=1;whiteSpace=wrap;html=1;fillColor=#dae8fc;strokeColor=#6c8ebf;" parent="1" vertex="1">
          <mxGeometry x="260" y="620" width="80" height="30" as="geometry" />
        </mxCell>
        <mxCell id="3LPpduyYCGpr62enKzP0-69" style="edgeStyle=orthogonalEdgeStyle;rounded=0;orthogonalLoop=1;jettySize=auto;html=1;entryX=0.5;entryY=1;entryDx=0;entryDy=0;" parent="1" source="3LPpduyYCGpr62enKzP0-71" target="3LPpduyYCGpr62enKzP0-63" edge="1">
          <mxGeometry relative="1" as="geometry" />
        </mxCell>
        <mxCell id="3LPpduyYCGpr62enKzP0-70" style="edgeStyle=orthogonalEdgeStyle;rounded=0;orthogonalLoop=1;jettySize=auto;html=1;entryX=0.5;entryY=1;entryDx=0;entryDy=0;" parent="1" source="3LPpduyYCGpr62enKzP0-71" target="3LPpduyYCGpr62enKzP0-72" edge="1">
          <mxGeometry relative="1" as="geometry" />
        </mxCell>
        <mxCell id="3LPpduyYCGpr62enKzP0-71" value="shard1-2" style="rounded=1;whiteSpace=wrap;html=1;fillColor=#dae8fc;strokeColor=#6c8ebf;" parent="1" vertex="1">
          <mxGeometry x="460" y="620" width="80" height="30" as="geometry" />
        </mxCell>
        <mxCell id="3LPpduyYCGpr62enKzP0-72" value="Configuration Server" style="rounded=1;whiteSpace=wrap;html=1;fillColor=#f8cecc;strokeColor=#b85450;" parent="1" vertex="1">
          <mxGeometry x="590" y="480" width="130" height="30" as="geometry" />
        </mxCell>
        <mxCell id="3LPpduyYCGpr62enKzP0-73" value="&lt;p style=&quot;margin: 0px 0px 0px 13px; text-indent: -13px; font-variant-numeric: normal; font-variant-east-asian: normal; font-variant-alternates: normal; font-kerning: auto; font-optical-sizing: auto; font-feature-settings: normal; font-variation-settings: normal; font-variant-position: normal; font-stretch: normal; line-height: normal; color: rgb(14, 14, 14); text-align: start;&quot; class=&quot;p1&quot;&gt;&lt;font style=&quot;font-size: 9px;&quot;&gt;pymongo driver&lt;/font&gt;&lt;/p&gt;" style="rounded=1;whiteSpace=wrap;html=1;fillColor=#FF77BF;strokeColor=none;arcSize=50;" parent="1" vertex="1">
          <mxGeometry x="410" y="434" width="70" height="20" as="geometry" />
        </mxCell>
        <mxCell id="3LPpduyYCGpr62enKzP0-74" value="&lt;p style=&quot;margin: 0px 0px 0px 13px; text-indent: -13px; font-variant-numeric: normal; font-variant-east-asian: normal; font-variant-alternates: normal; font-kerning: auto; font-optical-sizing: auto; font-feature-settings: normal; font-variation-settings: normal; font-variant-position: normal; font-stretch: normal; line-height: normal; color: rgb(14, 14, 14); text-align: start;&quot; class=&quot;p1&quot;&gt;&lt;font style=&quot;font-size: 9px;&quot;&gt;mongos&lt;/font&gt;&lt;/p&gt;" style="rounded=1;whiteSpace=wrap;html=1;fillColor=#FF77BF;strokeColor=none;arcSize=50;" parent="1" vertex="1">
          <mxGeometry x="310" y="497.5" width="50" height="15" as="geometry" />
        </mxCell>
        <mxCell id="3LPpduyYCGpr62enKzP0-75" value="&lt;p style=&quot;margin: 0px 0px 0px 13px; text-indent: -13px; font-variant-numeric: normal; font-variant-east-asian: normal; font-variant-alternates: normal; font-kerning: auto; font-optical-sizing: auto; font-feature-settings: normal; font-variation-settings: normal; font-variant-position: normal; font-stretch: normal; line-height: normal; color: rgb(14, 14, 14); text-align: start;&quot; class=&quot;p1&quot;&gt;&lt;font style=&quot;font-size: 9px;&quot;&gt;mongos&lt;/font&gt;&lt;/p&gt;" style="rounded=1;whiteSpace=wrap;html=1;fillColor=#FF77BF;strokeColor=none;arcSize=50;" parent="1" vertex="1">
          <mxGeometry x="510" y="495" width="50" height="15" as="geometry" />
        </mxCell>
        <mxCell id="3LPpduyYCGpr62enKzP0-76" value="&lt;p style=&quot;margin: 0px 0px 0px 13px; text-indent: -13px; font-variant-numeric: normal; font-variant-east-asian: normal; font-variant-alternates: normal; font-kerning: auto; font-optical-sizing: auto; font-feature-settings: normal; font-variation-settings: normal; font-variant-position: normal; font-stretch: normal; line-height: normal; color: rgb(14, 14, 14); text-align: start;&quot; class=&quot;p1&quot;&gt;&lt;font style=&quot;font-size: 9px;&quot;&gt;mongod&lt;/font&gt;&lt;/p&gt;" style="rounded=1;whiteSpace=wrap;html=1;fillColor=#FF77BF;strokeColor=none;arcSize=50;" parent="1" vertex="1">
          <mxGeometry x="670" y="465" width="50" height="15" as="geometry" />
        </mxCell>
        <mxCell id="3LPpduyYCGpr62enKzP0-77" value="&lt;p style=&quot;margin: 0px 0px 0px 13px; text-indent: -13px; font-variant-numeric: normal; font-variant-east-asian: normal; font-variant-alternates: normal; font-kerning: auto; font-optical-sizing: auto; font-feature-settings: normal; font-variation-settings: normal; font-variant-position: normal; font-stretch: normal; line-height: normal; color: rgb(14, 14, 14); text-align: start;&quot; class=&quot;p1&quot;&gt;&lt;font style=&quot;font-size: 9px;&quot;&gt;mongod&lt;/font&gt;&lt;/p&gt;" style="rounded=1;whiteSpace=wrap;html=1;fillColor=#FF77BF;strokeColor=none;arcSize=50;" parent="1" vertex="1">
          <mxGeometry x="310" y="605" width="50" height="15" as="geometry" />
        </mxCell>
        <mxCell id="3LPpduyYCGpr62enKzP0-78" value="&lt;p style=&quot;margin: 0px 0px 0px 13px; text-indent: -13px; font-variant-numeric: normal; font-variant-east-asian: normal; font-variant-alternates: normal; font-kerning: auto; font-optical-sizing: auto; font-feature-settings: normal; font-variation-settings: normal; font-variant-position: normal; font-stretch: normal; line-height: normal; color: rgb(14, 14, 14); text-align: start;&quot; class=&quot;p1&quot;&gt;&lt;font style=&quot;font-size: 9px;&quot;&gt;mongod&lt;/font&gt;&lt;/p&gt;" style="rounded=1;whiteSpace=wrap;html=1;fillColor=#FF77BF;strokeColor=none;arcSize=50;" parent="1" vertex="1">
          <mxGeometry x="510" y="605" width="50" height="15" as="geometry" />
        </mxCell>
        <mxCell id="3LPpduyYCGpr62enKzP0-79" value="&lt;font style=&quot;font-size: 11px;&quot;&gt;Secondary Server&lt;/font&gt;" style="shape=cylinder3;whiteSpace=wrap;html=1;boundedLbl=1;backgroundOutline=1;size=15;" parent="1" vertex="1">
          <mxGeometry x="1005" y="671.5" width="55" height="60" as="geometry" />
        </mxCell>
        <mxCell id="3LPpduyYCGpr62enKzP0-80" value="&lt;font style=&quot;font-size: 11px;&quot;&gt;Secondary Server&lt;/font&gt;" style="shape=cylinder3;whiteSpace=wrap;html=1;boundedLbl=1;backgroundOutline=1;size=15;" parent="1" vertex="1">
          <mxGeometry x="1005" y="738.5" width="55" height="60" as="geometry" />
        </mxCell>
        <mxCell id="3LPpduyYCGpr62enKzP0-81" value="&lt;font style=&quot;font-size: 11px;&quot;&gt;Secondary Server&lt;/font&gt;" style="shape=cylinder3;whiteSpace=wrap;html=1;boundedLbl=1;backgroundOutline=1;size=15;" parent="1" vertex="1">
          <mxGeometry x="1205" y="671.5" width="55" height="60" as="geometry" />
        </mxCell>
        <mxCell id="3LPpduyYCGpr62enKzP0-82" value="&lt;font style=&quot;font-size: 11px;&quot;&gt;Secondary Server&lt;/font&gt;" style="shape=cylinder3;whiteSpace=wrap;html=1;boundedLbl=1;backgroundOutline=1;size=15;" parent="1" vertex="1">
          <mxGeometry x="1205" y="738.5" width="55" height="60" as="geometry" />
        </mxCell>
        <mxCell id="3LPpduyYCGpr62enKzP0-83" style="edgeStyle=orthogonalEdgeStyle;rounded=0;orthogonalLoop=1;jettySize=auto;html=1;exitX=0;exitY=0.5;exitDx=0;exitDy=0;exitPerimeter=0;entryX=1;entryY=0.5;entryDx=0;entryDy=0;entryPerimeter=0;endArrow=none;startFill=0;dashed=1;" parent="1" source="3LPpduyYCGpr62enKzP0-81" target="3LPpduyYCGpr62enKzP0-79" edge="1">
          <mxGeometry relative="1" as="geometry" />
        </mxCell>
        <mxCell id="3LPpduyYCGpr62enKzP0-84" style="edgeStyle=orthogonalEdgeStyle;rounded=0;orthogonalLoop=1;jettySize=auto;html=1;exitX=0;exitY=0.5;exitDx=0;exitDy=0;exitPerimeter=0;entryX=1;entryY=0.5;entryDx=0;entryDy=0;entryPerimeter=0;endArrow=none;startFill=0;dashed=1;" parent="1" source="3LPpduyYCGpr62enKzP0-82" target="3LPpduyYCGpr62enKzP0-80" edge="1">
          <mxGeometry relative="1" as="geometry" />
        </mxCell>
        <mxCell id="3LPpduyYCGpr62enKzP0-85" value="&lt;font style=&quot;font-size: 11px;&quot;&gt;Primary Server&lt;/font&gt;" style="shape=cylinder3;whiteSpace=wrap;html=1;boundedLbl=1;backgroundOutline=1;size=15;" parent="1" vertex="1">
          <mxGeometry x="1665" y="573" width="55" height="60" as="geometry" />
        </mxCell>
        <mxCell id="3LPpduyYCGpr62enKzP0-86" value="pymongo-api" style="rounded=1;whiteSpace=wrap;html=1;" parent="1" vertex="1">
          <mxGeometry x="1740" y="-10" width="120" height="60" as="geometry" />
        </mxCell>
        <mxCell id="3LPpduyYCGpr62enKzP0-87" style="edgeStyle=orthogonalEdgeStyle;rounded=0;orthogonalLoop=1;jettySize=auto;html=1;entryX=1;entryY=0.5;entryDx=0;entryDy=0;" parent="1" target="3LPpduyYCGpr62enKzP0-119" edge="1">
          <mxGeometry relative="1" as="geometry">
            <mxPoint x="1840" y="50" as="sourcePoint" />
            <mxPoint x="1630" y="343" as="targetPoint" />
            <Array as="points">
              <mxPoint x="1840" y="50" />
              <mxPoint x="1840" y="100" />
              <mxPoint x="1880" y="100" />
              <mxPoint x="1880" y="190" />
            </Array>
          </mxGeometry>
        </mxCell>
        <mxCell id="3LPpduyYCGpr62enKzP0-88" style="edgeStyle=orthogonalEdgeStyle;rounded=0;orthogonalLoop=1;jettySize=auto;html=1;exitX=0;exitY=0.5;exitDx=0;exitDy=0;entryX=0.5;entryY=0;entryDx=0;entryDy=0;" parent="1" source="3LPpduyYCGpr62enKzP0-90" target="3LPpduyYCGpr62enKzP0-93" edge="1">
          <mxGeometry relative="1" as="geometry" />
        </mxCell>
        <mxCell id="3LPpduyYCGpr62enKzP0-89" style="edgeStyle=orthogonalEdgeStyle;rounded=0;orthogonalLoop=1;jettySize=auto;html=1;entryX=0.5;entryY=0;entryDx=0;entryDy=0;" parent="1" source="3LPpduyYCGpr62enKzP0-90" target="3LPpduyYCGpr62enKzP0-96" edge="1">
          <mxGeometry relative="1" as="geometry" />
        </mxCell>
        <mxCell id="3LPpduyYCGpr62enKzP0-121" style="edgeStyle=orthogonalEdgeStyle;rounded=0;orthogonalLoop=1;jettySize=auto;html=1;exitX=0.25;exitY=0;exitDx=0;exitDy=0;entryX=0;entryY=0.5;entryDx=0;entryDy=0;" parent="1" source="3LPpduyYCGpr62enKzP0-90" target="3LPpduyYCGpr62enKzP0-119" edge="1">
          <mxGeometry relative="1" as="geometry">
            <Array as="points">
              <mxPoint x="1780" y="302" />
              <mxPoint x="1720" y="302" />
              <mxPoint x="1720" y="190" />
            </Array>
          </mxGeometry>
        </mxCell>
        <mxCell id="3LPpduyYCGpr62enKzP0-90" value="Driver" style="rounded=1;whiteSpace=wrap;html=1;fillColor=#dae8fc;strokeColor=#6c8ebf;" parent="1" vertex="1">
          <mxGeometry x="1760" y="373" width="80" height="30" as="geometry" />
        </mxCell>
        <mxCell id="3LPpduyYCGpr62enKzP0-91" style="edgeStyle=orthogonalEdgeStyle;rounded=0;orthogonalLoop=1;jettySize=auto;html=1;entryX=0;entryY=0.5;entryDx=0;entryDy=0;endArrow=none;startFill=0;dashed=1;" parent="1" source="3LPpduyYCGpr62enKzP0-93" target="3LPpduyYCGpr62enKzP0-96" edge="1">
          <mxGeometry relative="1" as="geometry" />
        </mxCell>
        <mxCell id="3LPpduyYCGpr62enKzP0-92" style="edgeStyle=orthogonalEdgeStyle;rounded=0;orthogonalLoop=1;jettySize=auto;html=1;exitX=0.5;exitY=1;exitDx=0;exitDy=0;entryX=0.5;entryY=0;entryDx=0;entryDy=0;" parent="1" source="3LPpduyYCGpr62enKzP0-93" target="3LPpduyYCGpr62enKzP0-101" edge="1">
          <mxGeometry relative="1" as="geometry" />
        </mxCell>
        <mxCell id="3LPpduyYCGpr62enKzP0-93" value="Router" style="rounded=1;whiteSpace=wrap;html=1;fillColor=#dae8fc;strokeColor=#6c8ebf;" parent="1" vertex="1">
          <mxGeometry x="1660" y="433" width="80" height="30" as="geometry" />
        </mxCell>
        <mxCell id="3LPpduyYCGpr62enKzP0-94" style="edgeStyle=orthogonalEdgeStyle;rounded=0;orthogonalLoop=1;jettySize=auto;html=1;exitX=0.5;exitY=1;exitDx=0;exitDy=0;entryX=0.5;entryY=0;entryDx=0;entryDy=0;" parent="1" source="3LPpduyYCGpr62enKzP0-96" target="3LPpduyYCGpr62enKzP0-104" edge="1">
          <mxGeometry relative="1" as="geometry">
            <mxPoint x="1900" y="493" as="targetPoint" />
          </mxGeometry>
        </mxCell>
        <mxCell id="3LPpduyYCGpr62enKzP0-95" style="edgeStyle=orthogonalEdgeStyle;rounded=0;orthogonalLoop=1;jettySize=auto;html=1;entryX=0;entryY=0.5;entryDx=0;entryDy=0;" parent="1" source="3LPpduyYCGpr62enKzP0-96" target="3LPpduyYCGpr62enKzP0-105" edge="1">
          <mxGeometry relative="1" as="geometry" />
        </mxCell>
        <mxCell id="3LPpduyYCGpr62enKzP0-96" value="Router" style="rounded=1;whiteSpace=wrap;html=1;fillColor=#dae8fc;strokeColor=#6c8ebf;" parent="1" vertex="1">
          <mxGeometry x="1860" y="433" width="80" height="30" as="geometry" />
        </mxCell>
        <mxCell id="3LPpduyYCGpr62enKzP0-97" style="edgeStyle=orthogonalEdgeStyle;rounded=0;orthogonalLoop=1;jettySize=auto;html=1;dashed=1;endArrow=none;endFill=1;startFill=0;" parent="1" source="3LPpduyYCGpr62enKzP0-98" target="3LPpduyYCGpr62enKzP0-85" edge="1">
          <mxGeometry relative="1" as="geometry" />
        </mxCell>
        <mxCell id="3LPpduyYCGpr62enKzP0-98" value="&lt;font style=&quot;font-size: 11px;&quot;&gt;Primary Server&lt;/font&gt;" style="shape=cylinder3;whiteSpace=wrap;html=1;boundedLbl=1;backgroundOutline=1;size=15;" parent="1" vertex="1">
          <mxGeometry x="1865" y="573" width="55" height="60" as="geometry" />
        </mxCell>
        <mxCell id="3LPpduyYCGpr62enKzP0-99" style="edgeStyle=orthogonalEdgeStyle;rounded=0;orthogonalLoop=1;jettySize=auto;html=1;entryX=0.5;entryY=1;entryDx=0;entryDy=0;" parent="1" source="3LPpduyYCGpr62enKzP0-101" target="3LPpduyYCGpr62enKzP0-93" edge="1">
          <mxGeometry relative="1" as="geometry" />
        </mxCell>
        <mxCell id="3LPpduyYCGpr62enKzP0-100" style="edgeStyle=orthogonalEdgeStyle;rounded=0;orthogonalLoop=1;jettySize=auto;html=1;" parent="1" source="3LPpduyYCGpr62enKzP0-101" edge="1">
          <mxGeometry relative="1" as="geometry">
            <mxPoint x="1900" y="463" as="targetPoint" />
            <Array as="points">
              <mxPoint x="1700" y="503" />
              <mxPoint x="1900" y="503" />
            </Array>
          </mxGeometry>
        </mxCell>
        <mxCell id="3LPpduyYCGpr62enKzP0-101" value="shard1-1" style="rounded=1;whiteSpace=wrap;html=1;fillColor=#dae8fc;strokeColor=#6c8ebf;" parent="1" vertex="1">
          <mxGeometry x="1660" y="543" width="80" height="30" as="geometry" />
        </mxCell>
        <mxCell id="3LPpduyYCGpr62enKzP0-102" style="edgeStyle=orthogonalEdgeStyle;rounded=0;orthogonalLoop=1;jettySize=auto;html=1;entryX=0.5;entryY=1;entryDx=0;entryDy=0;" parent="1" source="3LPpduyYCGpr62enKzP0-104" target="3LPpduyYCGpr62enKzP0-96" edge="1">
          <mxGeometry relative="1" as="geometry" />
        </mxCell>
        <mxCell id="3LPpduyYCGpr62enKzP0-103" style="edgeStyle=orthogonalEdgeStyle;rounded=0;orthogonalLoop=1;jettySize=auto;html=1;entryX=0.5;entryY=1;entryDx=0;entryDy=0;" parent="1" source="3LPpduyYCGpr62enKzP0-104" target="3LPpduyYCGpr62enKzP0-105" edge="1">
          <mxGeometry relative="1" as="geometry" />
        </mxCell>
        <mxCell id="3LPpduyYCGpr62enKzP0-104" value="shard1-2" style="rounded=1;whiteSpace=wrap;html=1;fillColor=#dae8fc;strokeColor=#6c8ebf;" parent="1" vertex="1">
          <mxGeometry x="1860" y="543" width="80" height="30" as="geometry" />
        </mxCell>
        <mxCell id="3LPpduyYCGpr62enKzP0-105" value="configSrv" style="rounded=1;whiteSpace=wrap;html=1;fillColor=#f8cecc;strokeColor=#b85450;" parent="1" vertex="1">
          <mxGeometry x="2040" y="403" width="80" height="30" as="geometry" />
        </mxCell>
        <mxCell id="3LPpduyYCGpr62enKzP0-106" value="&lt;font style=&quot;font-size: 55px;&quot;&gt;3&lt;/font&gt;" style="text;strokeColor=none;align=center;fillColor=none;html=1;verticalAlign=middle;whiteSpace=wrap;rounded=0;" parent="1" vertex="1">
          <mxGeometry x="1610" y="-50" width="60" height="30" as="geometry" />
        </mxCell>
        <mxCell id="3LPpduyYCGpr62enKzP0-107" value="&lt;p style=&quot;margin: 0px 0px 0px 13px; text-indent: -13px; font-variant-numeric: normal; font-variant-east-asian: normal; font-variant-alternates: normal; font-kerning: auto; font-optical-sizing: auto; font-feature-settings: normal; font-variation-settings: normal; font-variant-position: normal; font-stretch: normal; line-height: normal; color: rgb(14, 14, 14); text-align: start;&quot; class=&quot;p1&quot;&gt;&lt;font style=&quot;font-size: 9px;&quot;&gt;pymongo driver&lt;/font&gt;&lt;/p&gt;" style="rounded=1;whiteSpace=wrap;html=1;fillColor=#FF77BF;strokeColor=none;arcSize=50;" parent="1" vertex="1">
          <mxGeometry x="1780" y="398" width="70" height="20" as="geometry" />
        </mxCell>
        <mxCell id="3LPpduyYCGpr62enKzP0-108" value="&lt;p style=&quot;margin: 0px 0px 0px 13px; text-indent: -13px; font-variant-numeric: normal; font-variant-east-asian: normal; font-variant-alternates: normal; font-kerning: auto; font-optical-sizing: auto; font-feature-settings: normal; font-variation-settings: normal; font-variant-position: normal; font-stretch: normal; line-height: normal; color: rgb(14, 14, 14); text-align: start;&quot; class=&quot;p1&quot;&gt;&lt;font style=&quot;font-size: 9px;&quot;&gt;mongos&lt;/font&gt;&lt;/p&gt;" style="rounded=1;whiteSpace=wrap;html=1;fillColor=#FF77BF;strokeColor=none;arcSize=50;" parent="1" vertex="1">
          <mxGeometry x="1710" y="420.5" width="50" height="15" as="geometry" />
        </mxCell>
        <mxCell id="3LPpduyYCGpr62enKzP0-109" value="&lt;p style=&quot;margin: 0px 0px 0px 13px; text-indent: -13px; font-variant-numeric: normal; font-variant-east-asian: normal; font-variant-alternates: normal; font-kerning: auto; font-optical-sizing: auto; font-feature-settings: normal; font-variation-settings: normal; font-variant-position: normal; font-stretch: normal; line-height: normal; color: rgb(14, 14, 14); text-align: start;&quot; class=&quot;p1&quot;&gt;&lt;font style=&quot;font-size: 9px;&quot;&gt;mongos&lt;/font&gt;&lt;/p&gt;" style="rounded=1;whiteSpace=wrap;html=1;fillColor=#FF77BF;strokeColor=none;arcSize=50;" parent="1" vertex="1">
          <mxGeometry x="1910" y="418" width="50" height="15" as="geometry" />
        </mxCell>
        <mxCell id="3LPpduyYCGpr62enKzP0-110" value="&lt;p style=&quot;margin: 0px 0px 0px 13px; text-indent: -13px; font-variant-numeric: normal; font-variant-east-asian: normal; font-variant-alternates: normal; font-kerning: auto; font-optical-sizing: auto; font-feature-settings: normal; font-variation-settings: normal; font-variant-position: normal; font-stretch: normal; line-height: normal; color: rgb(14, 14, 14); text-align: start;&quot; class=&quot;p1&quot;&gt;&lt;font style=&quot;font-size: 9px;&quot;&gt;mongod&lt;/font&gt;&lt;/p&gt;" style="rounded=1;whiteSpace=wrap;html=1;fillColor=#FF77BF;strokeColor=none;arcSize=50;" parent="1" vertex="1">
          <mxGeometry x="2070" y="388" width="50" height="15" as="geometry" />
        </mxCell>
        <mxCell id="3LPpduyYCGpr62enKzP0-111" value="&lt;p style=&quot;margin: 0px 0px 0px 13px; text-indent: -13px; font-variant-numeric: normal; font-variant-east-asian: normal; font-variant-alternates: normal; font-kerning: auto; font-optical-sizing: auto; font-feature-settings: normal; font-variation-settings: normal; font-variant-position: normal; font-stretch: normal; line-height: normal; color: rgb(14, 14, 14); text-align: start;&quot; class=&quot;p1&quot;&gt;&lt;font style=&quot;font-size: 9px;&quot;&gt;mongod&lt;/font&gt;&lt;/p&gt;" style="rounded=1;whiteSpace=wrap;html=1;fillColor=#FF77BF;strokeColor=none;arcSize=50;" parent="1" vertex="1">
          <mxGeometry x="1710" y="528" width="50" height="15" as="geometry" />
        </mxCell>
        <mxCell id="3LPpduyYCGpr62enKzP0-112" value="&lt;p style=&quot;margin: 0px 0px 0px 13px; text-indent: -13px; font-variant-numeric: normal; font-variant-east-asian: normal; font-variant-alternates: normal; font-kerning: auto; font-optical-sizing: auto; font-feature-settings: normal; font-variation-settings: normal; font-variant-position: normal; font-stretch: normal; line-height: normal; color: rgb(14, 14, 14); text-align: start;&quot; class=&quot;p1&quot;&gt;&lt;font style=&quot;font-size: 9px;&quot;&gt;mongod&lt;/font&gt;&lt;/p&gt;" style="rounded=1;whiteSpace=wrap;html=1;fillColor=#FF77BF;strokeColor=none;arcSize=50;" parent="1" vertex="1">
          <mxGeometry x="1910" y="528" width="50" height="15" as="geometry" />
        </mxCell>
        <mxCell id="3LPpduyYCGpr62enKzP0-113" value="&lt;font style=&quot;font-size: 11px;&quot;&gt;Secondary Server&lt;/font&gt;" style="shape=cylinder3;whiteSpace=wrap;html=1;boundedLbl=1;backgroundOutline=1;size=15;" parent="1" vertex="1">
          <mxGeometry x="1665" y="643" width="55" height="60" as="geometry" />
        </mxCell>
        <mxCell id="3LPpduyYCGpr62enKzP0-114" value="&lt;font style=&quot;font-size: 11px;&quot;&gt;Secondary Server&lt;/font&gt;" style="shape=cylinder3;whiteSpace=wrap;html=1;boundedLbl=1;backgroundOutline=1;size=15;" parent="1" vertex="1">
          <mxGeometry x="1665" y="710" width="55" height="60" as="geometry" />
        </mxCell>
        <mxCell id="3LPpduyYCGpr62enKzP0-115" value="&lt;font style=&quot;font-size: 11px;&quot;&gt;Secondary Server&lt;/font&gt;" style="shape=cylinder3;whiteSpace=wrap;html=1;boundedLbl=1;backgroundOutline=1;size=15;" parent="1" vertex="1">
          <mxGeometry x="1865" y="643" width="55" height="60" as="geometry" />
        </mxCell>
        <mxCell id="3LPpduyYCGpr62enKzP0-116" value="&lt;font style=&quot;font-size: 11px;&quot;&gt;Secondary Server&lt;/font&gt;" style="shape=cylinder3;whiteSpace=wrap;html=1;boundedLbl=1;backgroundOutline=1;size=15;" parent="1" vertex="1">
          <mxGeometry x="1865" y="710" width="55" height="60" as="geometry" />
        </mxCell>
        <mxCell id="3LPpduyYCGpr62enKzP0-117" style="edgeStyle=orthogonalEdgeStyle;rounded=0;orthogonalLoop=1;jettySize=auto;html=1;exitX=0;exitY=0.5;exitDx=0;exitDy=0;exitPerimeter=0;entryX=1;entryY=0.5;entryDx=0;entryDy=0;entryPerimeter=0;endArrow=none;startFill=0;dashed=1;" parent="1" source="3LPpduyYCGpr62enKzP0-115" target="3LPpduyYCGpr62enKzP0-113" edge="1">
          <mxGeometry relative="1" as="geometry" />
        </mxCell>
        <mxCell id="3LPpduyYCGpr62enKzP0-118" style="edgeStyle=orthogonalEdgeStyle;rounded=0;orthogonalLoop=1;jettySize=auto;html=1;exitX=0;exitY=0.5;exitDx=0;exitDy=0;exitPerimeter=0;entryX=1;entryY=0.5;entryDx=0;entryDy=0;entryPerimeter=0;endArrow=none;startFill=0;dashed=1;" parent="1" source="3LPpduyYCGpr62enKzP0-116" target="3LPpduyYCGpr62enKzP0-114" edge="1">
          <mxGeometry relative="1" as="geometry" />
        </mxCell>
        <mxCell id="3LPpduyYCGpr62enKzP0-120" style="edgeStyle=orthogonalEdgeStyle;rounded=0;orthogonalLoop=1;jettySize=auto;html=1;exitX=1;exitY=0.5;exitDx=0;exitDy=0;entryX=0.877;entryY=-0.002;entryDx=0;entryDy=0;entryPerimeter=0;" parent="1" source="3LPpduyYCGpr62enKzP0-119" target="3LPpduyYCGpr62enKzP0-90" edge="1">
          <mxGeometry relative="1" as="geometry">
            <mxPoint x="1830" y="375" as="targetPoint" />
            <Array as="points">
              <mxPoint x="1880" y="190" />
              <mxPoint x="1880" y="302" />
              <mxPoint x="1830" y="302" />
            </Array>
          </mxGeometry>
        </mxCell>
        <mxCell id="3LPpduyYCGpr62enKzP0-119" value="Redis&lt;div&gt;Cache&lt;/div&gt;" style="rhombus;whiteSpace=wrap;html=1;" parent="1" vertex="1">
          <mxGeometry x="1760" y="150" width="80" height="80" as="geometry" />
        </mxCell>
        <mxCell id="3LPpduyYCGpr62enKzP0-122" style="edgeStyle=orthogonalEdgeStyle;rounded=0;orthogonalLoop=1;jettySize=auto;html=1;entryX=0.166;entryY=0.991;entryDx=0;entryDy=0;entryPerimeter=0;" parent="1" source="3LPpduyYCGpr62enKzP0-119" target="3LPpduyYCGpr62enKzP0-86" edge="1">
          <mxGeometry relative="1" as="geometry">
            <mxPoint x="1758" y="50" as="targetPoint" />
            <Array as="points">
              <mxPoint x="1720" y="190" />
              <mxPoint x="1720" y="100" />
              <mxPoint x="1760" y="100" />
            </Array>
          </mxGeometry>
        </mxCell>
        <mxCell id="3LPpduyYCGpr62enKzP0-123" value="&lt;p style=&quot;margin: 0px 0px 0px 13px; text-indent: -13px; font-variant-numeric: normal; font-variant-east-asian: normal; font-variant-alternates: normal; font-kerning: auto; font-optical-sizing: auto; font-feature-settings: normal; font-variation-settings: normal; font-variant-position: normal; font-stretch: normal; line-height: normal; color: rgb(14, 14, 14); text-align: start;&quot; class=&quot;p1&quot;&gt;&lt;font style=&quot;font-size: 9px;&quot;&gt;+&amp;nbsp;Expiration Policy&lt;/font&gt;&lt;/p&gt;" style="rounded=1;whiteSpace=wrap;html=1;fillColor=#e1d5e7;strokeColor=#9673a6;arcSize=50;" parent="1" vertex="1">
          <mxGeometry x="1800" y="218" width="50" height="33.5" as="geometry" />
        </mxCell>
        <mxCell id="EjMGW613WOTaDOuK8E_c-2" value="database system" style="text;strokeColor=none;align=center;fillColor=none;html=1;verticalAlign=middle;whiteSpace=wrap;rounded=0;" parent="1" vertex="1">
          <mxGeometry x="1520" y="373" width="100" height="42" as="geometry" />
        </mxCell>
        <mxCell id="0EZqYTNdaghAj9sHrwn3-1" value="" style="rounded=0;whiteSpace=wrap;html=1;fillColor=none;dashed=1;" vertex="1" parent="1">
          <mxGeometry x="2280" y="335.75" width="610" height="418.5" as="geometry" />
        </mxCell>
        <mxCell id="0EZqYTNdaghAj9sHrwn3-2" value="&lt;font style=&quot;font-size: 11px;&quot;&gt;Primary Server&lt;/font&gt;" style="shape=cylinder3;whiteSpace=wrap;html=1;boundedLbl=1;backgroundOutline=1;size=15;" vertex="1" parent="1">
          <mxGeometry x="2425" y="528.75" width="55" height="60" as="geometry" />
        </mxCell>
        <mxCell id="0EZqYTNdaghAj9sHrwn3-3" value="pymongo-api" style="rounded=1;whiteSpace=wrap;html=1;" vertex="1" parent="1">
          <mxGeometry x="2500" y="-54.25" width="120" height="60" as="geometry" />
        </mxCell>
        <mxCell id="0EZqYTNdaghAj9sHrwn3-4" style="edgeStyle=orthogonalEdgeStyle;rounded=0;orthogonalLoop=1;jettySize=auto;html=1;entryX=1;entryY=0.5;entryDx=0;entryDy=0;" edge="1" parent="1" target="0EZqYTNdaghAj9sHrwn3-38">
          <mxGeometry relative="1" as="geometry">
            <mxPoint x="2600" y="5.75" as="sourcePoint" />
            <mxPoint x="2390" y="298.75" as="targetPoint" />
            <Array as="points">
              <mxPoint x="2600" y="5.75" />
              <mxPoint x="2600" y="55.75" />
              <mxPoint x="2640" y="55.75" />
              <mxPoint x="2640" y="145.75" />
            </Array>
          </mxGeometry>
        </mxCell>
        <mxCell id="0EZqYTNdaghAj9sHrwn3-5" style="edgeStyle=orthogonalEdgeStyle;rounded=0;orthogonalLoop=1;jettySize=auto;html=1;exitX=0;exitY=0.5;exitDx=0;exitDy=0;entryX=0.5;entryY=0;entryDx=0;entryDy=0;" edge="1" parent="1" source="0EZqYTNdaghAj9sHrwn3-8" target="0EZqYTNdaghAj9sHrwn3-11">
          <mxGeometry relative="1" as="geometry" />
        </mxCell>
        <mxCell id="0EZqYTNdaghAj9sHrwn3-6" style="edgeStyle=orthogonalEdgeStyle;rounded=0;orthogonalLoop=1;jettySize=auto;html=1;entryX=0.5;entryY=0;entryDx=0;entryDy=0;" edge="1" parent="1" source="0EZqYTNdaghAj9sHrwn3-8" target="0EZqYTNdaghAj9sHrwn3-14">
          <mxGeometry relative="1" as="geometry" />
        </mxCell>
        <mxCell id="0EZqYTNdaghAj9sHrwn3-7" style="edgeStyle=orthogonalEdgeStyle;rounded=0;orthogonalLoop=1;jettySize=auto;html=1;exitX=0.25;exitY=0;exitDx=0;exitDy=0;entryX=0;entryY=0.5;entryDx=0;entryDy=0;" edge="1" parent="1" source="0EZqYTNdaghAj9sHrwn3-8" target="0EZqYTNdaghAj9sHrwn3-38">
          <mxGeometry relative="1" as="geometry">
            <Array as="points">
              <mxPoint x="2540" y="257.75" />
              <mxPoint x="2480" y="257.75" />
              <mxPoint x="2480" y="145.75" />
            </Array>
          </mxGeometry>
        </mxCell>
        <mxCell id="0EZqYTNdaghAj9sHrwn3-8" value="Driver" style="rounded=1;whiteSpace=wrap;html=1;fillColor=#dae8fc;strokeColor=#6c8ebf;" vertex="1" parent="1">
          <mxGeometry x="2520" y="328.75" width="80" height="30" as="geometry" />
        </mxCell>
        <mxCell id="0EZqYTNdaghAj9sHrwn3-9" style="edgeStyle=orthogonalEdgeStyle;rounded=0;orthogonalLoop=1;jettySize=auto;html=1;entryX=0;entryY=0.5;entryDx=0;entryDy=0;endArrow=none;startFill=0;dashed=1;" edge="1" parent="1" source="0EZqYTNdaghAj9sHrwn3-11" target="0EZqYTNdaghAj9sHrwn3-14">
          <mxGeometry relative="1" as="geometry" />
        </mxCell>
        <mxCell id="0EZqYTNdaghAj9sHrwn3-10" style="edgeStyle=orthogonalEdgeStyle;rounded=0;orthogonalLoop=1;jettySize=auto;html=1;exitX=0.5;exitY=1;exitDx=0;exitDy=0;entryX=0.5;entryY=0;entryDx=0;entryDy=0;" edge="1" parent="1" source="0EZqYTNdaghAj9sHrwn3-11" target="0EZqYTNdaghAj9sHrwn3-19">
          <mxGeometry relative="1" as="geometry" />
        </mxCell>
        <mxCell id="0EZqYTNdaghAj9sHrwn3-11" value="Router" style="rounded=1;whiteSpace=wrap;html=1;fillColor=#dae8fc;strokeColor=#6c8ebf;" vertex="1" parent="1">
          <mxGeometry x="2420" y="388.75" width="80" height="30" as="geometry" />
        </mxCell>
        <mxCell id="0EZqYTNdaghAj9sHrwn3-12" style="edgeStyle=orthogonalEdgeStyle;rounded=0;orthogonalLoop=1;jettySize=auto;html=1;exitX=0.5;exitY=1;exitDx=0;exitDy=0;entryX=0.5;entryY=0;entryDx=0;entryDy=0;" edge="1" parent="1" source="0EZqYTNdaghAj9sHrwn3-14" target="0EZqYTNdaghAj9sHrwn3-22">
          <mxGeometry relative="1" as="geometry">
            <mxPoint x="2660" y="448.75" as="targetPoint" />
          </mxGeometry>
        </mxCell>
        <mxCell id="0EZqYTNdaghAj9sHrwn3-13" style="edgeStyle=orthogonalEdgeStyle;rounded=0;orthogonalLoop=1;jettySize=auto;html=1;entryX=0;entryY=0.5;entryDx=0;entryDy=0;" edge="1" parent="1" source="0EZqYTNdaghAj9sHrwn3-14" target="0EZqYTNdaghAj9sHrwn3-23">
          <mxGeometry relative="1" as="geometry" />
        </mxCell>
        <mxCell id="0EZqYTNdaghAj9sHrwn3-14" value="Router" style="rounded=1;whiteSpace=wrap;html=1;fillColor=#dae8fc;strokeColor=#6c8ebf;" vertex="1" parent="1">
          <mxGeometry x="2620" y="388.75" width="80" height="30" as="geometry" />
        </mxCell>
        <mxCell id="0EZqYTNdaghAj9sHrwn3-15" style="edgeStyle=orthogonalEdgeStyle;rounded=0;orthogonalLoop=1;jettySize=auto;html=1;dashed=1;endArrow=none;endFill=1;startFill=0;" edge="1" parent="1" source="0EZqYTNdaghAj9sHrwn3-16" target="0EZqYTNdaghAj9sHrwn3-2">
          <mxGeometry relative="1" as="geometry" />
        </mxCell>
        <mxCell id="0EZqYTNdaghAj9sHrwn3-16" value="&lt;font style=&quot;font-size: 11px;&quot;&gt;Primary Server&lt;/font&gt;" style="shape=cylinder3;whiteSpace=wrap;html=1;boundedLbl=1;backgroundOutline=1;size=15;" vertex="1" parent="1">
          <mxGeometry x="2625" y="528.75" width="55" height="60" as="geometry" />
        </mxCell>
        <mxCell id="0EZqYTNdaghAj9sHrwn3-17" style="edgeStyle=orthogonalEdgeStyle;rounded=0;orthogonalLoop=1;jettySize=auto;html=1;entryX=0.5;entryY=1;entryDx=0;entryDy=0;" edge="1" parent="1" source="0EZqYTNdaghAj9sHrwn3-19" target="0EZqYTNdaghAj9sHrwn3-11">
          <mxGeometry relative="1" as="geometry" />
        </mxCell>
        <mxCell id="0EZqYTNdaghAj9sHrwn3-18" style="edgeStyle=orthogonalEdgeStyle;rounded=0;orthogonalLoop=1;jettySize=auto;html=1;" edge="1" parent="1" source="0EZqYTNdaghAj9sHrwn3-19">
          <mxGeometry relative="1" as="geometry">
            <mxPoint x="2660" y="418.75" as="targetPoint" />
            <Array as="points">
              <mxPoint x="2460" y="458.75" />
              <mxPoint x="2660" y="458.75" />
            </Array>
          </mxGeometry>
        </mxCell>
        <mxCell id="0EZqYTNdaghAj9sHrwn3-19" value="shard1-1" style="rounded=1;whiteSpace=wrap;html=1;fillColor=#dae8fc;strokeColor=#6c8ebf;" vertex="1" parent="1">
          <mxGeometry x="2420" y="498.75" width="80" height="30" as="geometry" />
        </mxCell>
        <mxCell id="0EZqYTNdaghAj9sHrwn3-20" style="edgeStyle=orthogonalEdgeStyle;rounded=0;orthogonalLoop=1;jettySize=auto;html=1;entryX=0.5;entryY=1;entryDx=0;entryDy=0;" edge="1" parent="1" source="0EZqYTNdaghAj9sHrwn3-22" target="0EZqYTNdaghAj9sHrwn3-14">
          <mxGeometry relative="1" as="geometry" />
        </mxCell>
        <mxCell id="0EZqYTNdaghAj9sHrwn3-21" style="edgeStyle=orthogonalEdgeStyle;rounded=0;orthogonalLoop=1;jettySize=auto;html=1;entryX=0.5;entryY=1;entryDx=0;entryDy=0;" edge="1" parent="1" source="0EZqYTNdaghAj9sHrwn3-22" target="0EZqYTNdaghAj9sHrwn3-23">
          <mxGeometry relative="1" as="geometry" />
        </mxCell>
        <mxCell id="0EZqYTNdaghAj9sHrwn3-22" value="shard1-2" style="rounded=1;whiteSpace=wrap;html=1;fillColor=#dae8fc;strokeColor=#6c8ebf;" vertex="1" parent="1">
          <mxGeometry x="2620" y="498.75" width="80" height="30" as="geometry" />
        </mxCell>
        <mxCell id="0EZqYTNdaghAj9sHrwn3-23" value="configSrv" style="rounded=1;whiteSpace=wrap;html=1;fillColor=#f8cecc;strokeColor=#b85450;" vertex="1" parent="1">
          <mxGeometry x="2800" y="358.75" width="80" height="30" as="geometry" />
        </mxCell>
        <mxCell id="0EZqYTNdaghAj9sHrwn3-24" value="&lt;font style=&quot;font-size: 55px;&quot;&gt;4&lt;/font&gt;" style="text;strokeColor=none;align=center;fillColor=none;html=1;verticalAlign=middle;whiteSpace=wrap;rounded=0;" vertex="1" parent="1">
          <mxGeometry x="2370" y="-90" width="60" height="25.75" as="geometry" />
        </mxCell>
        <mxCell id="0EZqYTNdaghAj9sHrwn3-25" value="&lt;p style=&quot;margin: 0px 0px 0px 13px; text-indent: -13px; font-variant-numeric: normal; font-variant-east-asian: normal; font-variant-alternates: normal; font-kerning: auto; font-optical-sizing: auto; font-feature-settings: normal; font-variation-settings: normal; font-variant-position: normal; font-stretch: normal; line-height: normal; color: rgb(14, 14, 14); text-align: start;&quot; class=&quot;p1&quot;&gt;&lt;font style=&quot;font-size: 9px;&quot;&gt;pymongo driver&lt;/font&gt;&lt;/p&gt;" style="rounded=1;whiteSpace=wrap;html=1;fillColor=#FF77BF;strokeColor=none;arcSize=50;" vertex="1" parent="1">
          <mxGeometry x="2540" y="353.75" width="70" height="20" as="geometry" />
        </mxCell>
        <mxCell id="0EZqYTNdaghAj9sHrwn3-26" value="&lt;p style=&quot;margin: 0px 0px 0px 13px; text-indent: -13px; font-variant-numeric: normal; font-variant-east-asian: normal; font-variant-alternates: normal; font-kerning: auto; font-optical-sizing: auto; font-feature-settings: normal; font-variation-settings: normal; font-variant-position: normal; font-stretch: normal; line-height: normal; color: rgb(14, 14, 14); text-align: start;&quot; class=&quot;p1&quot;&gt;&lt;font style=&quot;font-size: 9px;&quot;&gt;mongos&lt;/font&gt;&lt;/p&gt;" style="rounded=1;whiteSpace=wrap;html=1;fillColor=#FF77BF;strokeColor=none;arcSize=50;" vertex="1" parent="1">
          <mxGeometry x="2470" y="376.25" width="50" height="15" as="geometry" />
        </mxCell>
        <mxCell id="0EZqYTNdaghAj9sHrwn3-27" value="&lt;p style=&quot;margin: 0px 0px 0px 13px; text-indent: -13px; font-variant-numeric: normal; font-variant-east-asian: normal; font-variant-alternates: normal; font-kerning: auto; font-optical-sizing: auto; font-feature-settings: normal; font-variation-settings: normal; font-variant-position: normal; font-stretch: normal; line-height: normal; color: rgb(14, 14, 14); text-align: start;&quot; class=&quot;p1&quot;&gt;&lt;font style=&quot;font-size: 9px;&quot;&gt;mongos&lt;/font&gt;&lt;/p&gt;" style="rounded=1;whiteSpace=wrap;html=1;fillColor=#FF77BF;strokeColor=none;arcSize=50;" vertex="1" parent="1">
          <mxGeometry x="2670" y="373.75" width="50" height="15" as="geometry" />
        </mxCell>
        <mxCell id="0EZqYTNdaghAj9sHrwn3-28" value="&lt;p style=&quot;margin: 0px 0px 0px 13px; text-indent: -13px; font-variant-numeric: normal; font-variant-east-asian: normal; font-variant-alternates: normal; font-kerning: auto; font-optical-sizing: auto; font-feature-settings: normal; font-variation-settings: normal; font-variant-position: normal; font-stretch: normal; line-height: normal; color: rgb(14, 14, 14); text-align: start;&quot; class=&quot;p1&quot;&gt;&lt;font style=&quot;font-size: 9px;&quot;&gt;mongod&lt;/font&gt;&lt;/p&gt;" style="rounded=1;whiteSpace=wrap;html=1;fillColor=#FF77BF;strokeColor=none;arcSize=50;" vertex="1" parent="1">
          <mxGeometry x="2830" y="343.75" width="50" height="15" as="geometry" />
        </mxCell>
        <mxCell id="0EZqYTNdaghAj9sHrwn3-29" value="&lt;p style=&quot;margin: 0px 0px 0px 13px; text-indent: -13px; font-variant-numeric: normal; font-variant-east-asian: normal; font-variant-alternates: normal; font-kerning: auto; font-optical-sizing: auto; font-feature-settings: normal; font-variation-settings: normal; font-variant-position: normal; font-stretch: normal; line-height: normal; color: rgb(14, 14, 14); text-align: start;&quot; class=&quot;p1&quot;&gt;&lt;font style=&quot;font-size: 9px;&quot;&gt;mongod&lt;/font&gt;&lt;/p&gt;" style="rounded=1;whiteSpace=wrap;html=1;fillColor=#FF77BF;strokeColor=none;arcSize=50;" vertex="1" parent="1">
          <mxGeometry x="2470" y="483.75" width="50" height="15" as="geometry" />
        </mxCell>
        <mxCell id="0EZqYTNdaghAj9sHrwn3-30" value="&lt;p style=&quot;margin: 0px 0px 0px 13px; text-indent: -13px; font-variant-numeric: normal; font-variant-east-asian: normal; font-variant-alternates: normal; font-kerning: auto; font-optical-sizing: auto; font-feature-settings: normal; font-variation-settings: normal; font-variant-position: normal; font-stretch: normal; line-height: normal; color: rgb(14, 14, 14); text-align: start;&quot; class=&quot;p1&quot;&gt;&lt;font style=&quot;font-size: 9px;&quot;&gt;mongod&lt;/font&gt;&lt;/p&gt;" style="rounded=1;whiteSpace=wrap;html=1;fillColor=#FF77BF;strokeColor=none;arcSize=50;" vertex="1" parent="1">
          <mxGeometry x="2670" y="483.75" width="50" height="15" as="geometry" />
        </mxCell>
        <mxCell id="0EZqYTNdaghAj9sHrwn3-31" value="&lt;font style=&quot;font-size: 11px;&quot;&gt;Secondary Server&lt;/font&gt;" style="shape=cylinder3;whiteSpace=wrap;html=1;boundedLbl=1;backgroundOutline=1;size=15;" vertex="1" parent="1">
          <mxGeometry x="2425" y="598.75" width="55" height="60" as="geometry" />
        </mxCell>
        <mxCell id="0EZqYTNdaghAj9sHrwn3-32" value="&lt;font style=&quot;font-size: 11px;&quot;&gt;Secondary Server&lt;/font&gt;" style="shape=cylinder3;whiteSpace=wrap;html=1;boundedLbl=1;backgroundOutline=1;size=15;" vertex="1" parent="1">
          <mxGeometry x="2425" y="665.75" width="55" height="60" as="geometry" />
        </mxCell>
        <mxCell id="0EZqYTNdaghAj9sHrwn3-33" value="&lt;font style=&quot;font-size: 11px;&quot;&gt;Secondary Server&lt;/font&gt;" style="shape=cylinder3;whiteSpace=wrap;html=1;boundedLbl=1;backgroundOutline=1;size=15;" vertex="1" parent="1">
          <mxGeometry x="2625" y="598.75" width="55" height="60" as="geometry" />
        </mxCell>
        <mxCell id="0EZqYTNdaghAj9sHrwn3-34" value="&lt;font style=&quot;font-size: 11px;&quot;&gt;Secondary Server&lt;/font&gt;" style="shape=cylinder3;whiteSpace=wrap;html=1;boundedLbl=1;backgroundOutline=1;size=15;" vertex="1" parent="1">
          <mxGeometry x="2625" y="665.75" width="55" height="60" as="geometry" />
        </mxCell>
        <mxCell id="0EZqYTNdaghAj9sHrwn3-35" style="edgeStyle=orthogonalEdgeStyle;rounded=0;orthogonalLoop=1;jettySize=auto;html=1;exitX=0;exitY=0.5;exitDx=0;exitDy=0;exitPerimeter=0;entryX=1;entryY=0.5;entryDx=0;entryDy=0;entryPerimeter=0;endArrow=none;startFill=0;dashed=1;" edge="1" parent="1" source="0EZqYTNdaghAj9sHrwn3-33" target="0EZqYTNdaghAj9sHrwn3-31">
          <mxGeometry relative="1" as="geometry" />
        </mxCell>
        <mxCell id="0EZqYTNdaghAj9sHrwn3-36" style="edgeStyle=orthogonalEdgeStyle;rounded=0;orthogonalLoop=1;jettySize=auto;html=1;exitX=0;exitY=0.5;exitDx=0;exitDy=0;exitPerimeter=0;entryX=1;entryY=0.5;entryDx=0;entryDy=0;entryPerimeter=0;endArrow=none;startFill=0;dashed=1;" edge="1" parent="1" source="0EZqYTNdaghAj9sHrwn3-34" target="0EZqYTNdaghAj9sHrwn3-32">
          <mxGeometry relative="1" as="geometry" />
        </mxCell>
        <mxCell id="0EZqYTNdaghAj9sHrwn3-37" style="edgeStyle=orthogonalEdgeStyle;rounded=0;orthogonalLoop=1;jettySize=auto;html=1;exitX=1;exitY=0.5;exitDx=0;exitDy=0;entryX=0.877;entryY=-0.002;entryDx=0;entryDy=0;entryPerimeter=0;" edge="1" parent="1" source="0EZqYTNdaghAj9sHrwn3-38" target="0EZqYTNdaghAj9sHrwn3-8">
          <mxGeometry relative="1" as="geometry">
            <mxPoint x="2590" y="330.75" as="targetPoint" />
            <Array as="points">
              <mxPoint x="2640" y="145.75" />
              <mxPoint x="2640" y="257.75" />
              <mxPoint x="2590" y="257.75" />
            </Array>
          </mxGeometry>
        </mxCell>
        <mxCell id="0EZqYTNdaghAj9sHrwn3-38" value="Redis&lt;div&gt;Cache&lt;/div&gt;" style="rhombus;whiteSpace=wrap;html=1;" vertex="1" parent="1">
          <mxGeometry x="2520" y="105.75" width="80" height="80" as="geometry" />
        </mxCell>
        <mxCell id="0EZqYTNdaghAj9sHrwn3-39" style="edgeStyle=orthogonalEdgeStyle;rounded=0;orthogonalLoop=1;jettySize=auto;html=1;entryX=0.166;entryY=0.991;entryDx=0;entryDy=0;entryPerimeter=0;" edge="1" parent="1" source="0EZqYTNdaghAj9sHrwn3-38" target="0EZqYTNdaghAj9sHrwn3-3">
          <mxGeometry relative="1" as="geometry">
            <mxPoint x="2518" y="5.75" as="targetPoint" />
            <Array as="points">
              <mxPoint x="2480" y="145.75" />
              <mxPoint x="2480" y="55.75" />
              <mxPoint x="2520" y="55.75" />
            </Array>
          </mxGeometry>
        </mxCell>
        <mxCell id="0EZqYTNdaghAj9sHrwn3-40" value="&lt;p style=&quot;margin: 0px 0px 0px 13px; text-indent: -13px; font-variant-numeric: normal; font-variant-east-asian: normal; font-variant-alternates: normal; font-kerning: auto; font-optical-sizing: auto; font-feature-settings: normal; font-variation-settings: normal; font-variant-position: normal; font-stretch: normal; line-height: normal; color: rgb(14, 14, 14); text-align: start;&quot; class=&quot;p1&quot;&gt;&lt;font style=&quot;font-size: 9px;&quot;&gt;+&amp;nbsp;Expiration Policy&lt;/font&gt;&lt;/p&gt;" style="rounded=1;whiteSpace=wrap;html=1;fillColor=#e1d5e7;strokeColor=#9673a6;arcSize=50;" vertex="1" parent="1">
          <mxGeometry x="2560" y="173.75" width="50" height="33.5" as="geometry" />
        </mxCell>
        <mxCell id="0EZqYTNdaghAj9sHrwn3-41" value="database system" style="text;strokeColor=none;align=center;fillColor=none;html=1;verticalAlign=middle;whiteSpace=wrap;rounded=0;" vertex="1" parent="1">
          <mxGeometry x="2280" y="328.75" width="100" height="42" as="geometry" />
        </mxCell>
        <mxCell id="0EZqYTNdaghAj9sHrwn3-44" style="edgeStyle=orthogonalEdgeStyle;rounded=0;orthogonalLoop=1;jettySize=auto;html=1;" edge="1" parent="1" source="0EZqYTNdaghAj9sHrwn3-42">
          <mxGeometry relative="1" as="geometry">
            <mxPoint x="2560.0000000000005" y="-60" as="targetPoint" />
          </mxGeometry>
        </mxCell>
        <mxCell id="0EZqYTNdaghAj9sHrwn3-50" style="edgeStyle=orthogonalEdgeStyle;rounded=0;orthogonalLoop=1;jettySize=auto;html=1;entryX=0;entryY=0.5;entryDx=0;entryDy=0;" edge="1" parent="1" source="0EZqYTNdaghAj9sHrwn3-42" target="0EZqYTNdaghAj9sHrwn3-49">
          <mxGeometry relative="1" as="geometry" />
        </mxCell>
        <mxCell id="0EZqYTNdaghAj9sHrwn3-42" value="&lt;span style=&quot;box-sizing: inherit; color: rgba(0, 0, 0, 0.85); font-family: &amp;quot;YS Text&amp;quot;, sans-serif; font-size: 18px; text-align: start; white-space-collapse: preserve; background-color: rgb(255, 255, 255);&quot;&gt;APISIX Gateway&lt;/span&gt;" style="rounded=1;whiteSpace=wrap;html=1;" vertex="1" parent="1">
          <mxGeometry x="2500" y="-210" width="120" height="60" as="geometry" />
        </mxCell>
        <mxCell id="0EZqYTNdaghAj9sHrwn3-53" style="edgeStyle=orthogonalEdgeStyle;rounded=0;orthogonalLoop=1;jettySize=auto;html=1;entryX=0.5;entryY=1;entryDx=0;entryDy=0;dashed=1;" edge="1" parent="1" source="0EZqYTNdaghAj9sHrwn3-43" target="0EZqYTNdaghAj9sHrwn3-49">
          <mxGeometry relative="1" as="geometry" />
        </mxCell>
        <mxCell id="0EZqYTNdaghAj9sHrwn3-43" value="pymongo-api" style="rounded=1;whiteSpace=wrap;html=1;" vertex="1" parent="1">
          <mxGeometry x="2510" y="-44.25" width="120" height="60" as="geometry" />
        </mxCell>
        <mxCell id="0EZqYTNdaghAj9sHrwn3-46" value="" style="edgeStyle=orthogonalEdgeStyle;rounded=0;orthogonalLoop=1;jettySize=auto;html=1;" edge="1" parent="1" source="0EZqYTNdaghAj9sHrwn3-45" target="0EZqYTNdaghAj9sHrwn3-42">
          <mxGeometry relative="1" as="geometry" />
        </mxCell>
        <mxCell id="0EZqYTNdaghAj9sHrwn3-47" value="" style="edgeStyle=orthogonalEdgeStyle;rounded=0;orthogonalLoop=1;jettySize=auto;html=1;" edge="1" parent="1" source="0EZqYTNdaghAj9sHrwn3-45" target="0EZqYTNdaghAj9sHrwn3-42">
          <mxGeometry relative="1" as="geometry" />
        </mxCell>
        <mxCell id="0EZqYTNdaghAj9sHrwn3-45" value="Client" style="shape=umlActor;verticalLabelPosition=middle;verticalAlign=middle;html=1;outlineConnect=0;align=right;horizontal=1;labelPosition=left;" vertex="1" parent="1">
          <mxGeometry x="2545" y="-380" width="30" height="60" as="geometry" />
        </mxCell>
        <mxCell id="0EZqYTNdaghAj9sHrwn3-49" value="Service Registery" style="rounded=1;whiteSpace=wrap;html=1;" vertex="1" parent="1">
          <mxGeometry x="2720" y="-210" width="120" height="60" as="geometry" />
        </mxCell>
        <mxCell id="0EZqYTNdaghAj9sHrwn3-51" value="Recieving IP adresses" style="text;strokeColor=none;align=center;fillColor=none;html=1;verticalAlign=middle;whiteSpace=wrap;rounded=0;" vertex="1" parent="1">
          <mxGeometry x="2630" y="-220" width="80" height="30" as="geometry" />
        </mxCell>
        <mxCell id="0EZqYTNdaghAj9sHrwn3-54" value="Registation" style="text;strokeColor=none;align=center;fillColor=none;html=1;verticalAlign=middle;whiteSpace=wrap;rounded=0;" vertex="1" parent="1">
          <mxGeometry x="2790" y="-74.25" width="80" height="30" as="geometry" />
        </mxCell>
        <mxCell id="0EZqYTNdaghAj9sHrwn3-108" value="&lt;p style=&quot;margin: 0px 0px 0px 13px; text-indent: -13px; font-variant-numeric: normal; font-variant-east-asian: normal; font-variant-alternates: normal; font-kerning: auto; font-optical-sizing: auto; font-feature-settings: normal; font-variation-settings: normal; font-variant-position: normal; font-stretch: normal; line-height: normal; color: rgb(14, 14, 14);&quot; class=&quot;p1&quot;&gt;&lt;font style=&quot;font-size: 9px;&quot;&gt;+consule_kv&lt;/font&gt;&lt;/p&gt;" style="rounded=1;whiteSpace=wrap;html=1;fillColor=#e1d5e7;strokeColor=#9673a6;arcSize=50;align=center;" vertex="1" parent="1">
          <mxGeometry x="2600" y="-190" width="60" height="20" as="geometry" />
        </mxCell>
        <mxCell id="0EZqYTNdaghAj9sHrwn3-109" value="&lt;p style=&quot;margin: 0px 0px 0px 13px; text-indent: -13px; font-variant-numeric: normal; font-variant-east-asian: normal; font-variant-alternates: normal; font-kerning: auto; font-optical-sizing: auto; font-feature-settings: normal; font-variation-settings: normal; font-variant-position: normal; font-stretch: normal; line-height: normal; color: rgb(14, 14, 14); text-align: start;&quot; class=&quot;p1&quot;&gt;&lt;font style=&quot;font-size: 9px;&quot;&gt;Consul&lt;/font&gt;&lt;/p&gt;" style="rounded=1;whiteSpace=wrap;html=1;fillColor=#FF77BF;strokeColor=none;arcSize=50;" vertex="1" parent="1">
          <mxGeometry x="2790" y="-220" width="50" height="15" as="geometry" />
        </mxCell>
        <mxCell id="0EZqYTNdaghAj9sHrwn3-110" value="" style="rounded=0;whiteSpace=wrap;html=1;fillColor=none;dashed=1;" vertex="1" parent="1">
          <mxGeometry x="3160" y="355.75" width="610" height="418.5" as="geometry" />
        </mxCell>
        <mxCell id="0EZqYTNdaghAj9sHrwn3-111" value="&lt;font style=&quot;font-size: 11px;&quot;&gt;Primary Server&lt;/font&gt;" style="shape=cylinder3;whiteSpace=wrap;html=1;boundedLbl=1;backgroundOutline=1;size=15;" vertex="1" parent="1">
          <mxGeometry x="3305" y="548.75" width="55" height="60" as="geometry" />
        </mxCell>
        <mxCell id="0EZqYTNdaghAj9sHrwn3-112" value="pymongo-api" style="rounded=1;whiteSpace=wrap;html=1;" vertex="1" parent="1">
          <mxGeometry x="3380" y="-34.25" width="120" height="60" as="geometry" />
        </mxCell>
        <mxCell id="0EZqYTNdaghAj9sHrwn3-113" style="edgeStyle=orthogonalEdgeStyle;rounded=0;orthogonalLoop=1;jettySize=auto;html=1;entryX=1;entryY=0.5;entryDx=0;entryDy=0;" edge="1" parent="1" target="0EZqYTNdaghAj9sHrwn3-147">
          <mxGeometry relative="1" as="geometry">
            <mxPoint x="3480" y="25.75" as="sourcePoint" />
            <mxPoint x="3270" y="318.75" as="targetPoint" />
            <Array as="points">
              <mxPoint x="3480" y="25.75" />
              <mxPoint x="3480" y="75.75" />
              <mxPoint x="3520" y="75.75" />
              <mxPoint x="3520" y="165.75" />
            </Array>
          </mxGeometry>
        </mxCell>
        <mxCell id="0EZqYTNdaghAj9sHrwn3-114" style="edgeStyle=orthogonalEdgeStyle;rounded=0;orthogonalLoop=1;jettySize=auto;html=1;exitX=0;exitY=0.5;exitDx=0;exitDy=0;entryX=0.5;entryY=0;entryDx=0;entryDy=0;" edge="1" parent="1" source="0EZqYTNdaghAj9sHrwn3-117" target="0EZqYTNdaghAj9sHrwn3-120">
          <mxGeometry relative="1" as="geometry" />
        </mxCell>
        <mxCell id="0EZqYTNdaghAj9sHrwn3-115" style="edgeStyle=orthogonalEdgeStyle;rounded=0;orthogonalLoop=1;jettySize=auto;html=1;entryX=0.5;entryY=0;entryDx=0;entryDy=0;" edge="1" parent="1" source="0EZqYTNdaghAj9sHrwn3-117" target="0EZqYTNdaghAj9sHrwn3-123">
          <mxGeometry relative="1" as="geometry" />
        </mxCell>
        <mxCell id="0EZqYTNdaghAj9sHrwn3-116" style="edgeStyle=orthogonalEdgeStyle;rounded=0;orthogonalLoop=1;jettySize=auto;html=1;exitX=0.25;exitY=0;exitDx=0;exitDy=0;entryX=0;entryY=0.5;entryDx=0;entryDy=0;" edge="1" parent="1" source="0EZqYTNdaghAj9sHrwn3-117" target="0EZqYTNdaghAj9sHrwn3-147">
          <mxGeometry relative="1" as="geometry">
            <Array as="points">
              <mxPoint x="3420" y="277.75" />
              <mxPoint x="3360" y="277.75" />
              <mxPoint x="3360" y="165.75" />
            </Array>
          </mxGeometry>
        </mxCell>
        <mxCell id="0EZqYTNdaghAj9sHrwn3-117" value="Driver" style="rounded=1;whiteSpace=wrap;html=1;fillColor=#dae8fc;strokeColor=#6c8ebf;" vertex="1" parent="1">
          <mxGeometry x="3400" y="348.75" width="80" height="30" as="geometry" />
        </mxCell>
        <mxCell id="0EZqYTNdaghAj9sHrwn3-118" style="edgeStyle=orthogonalEdgeStyle;rounded=0;orthogonalLoop=1;jettySize=auto;html=1;entryX=0;entryY=0.5;entryDx=0;entryDy=0;endArrow=none;startFill=0;dashed=1;" edge="1" parent="1" source="0EZqYTNdaghAj9sHrwn3-120" target="0EZqYTNdaghAj9sHrwn3-123">
          <mxGeometry relative="1" as="geometry" />
        </mxCell>
        <mxCell id="0EZqYTNdaghAj9sHrwn3-119" style="edgeStyle=orthogonalEdgeStyle;rounded=0;orthogonalLoop=1;jettySize=auto;html=1;exitX=0.5;exitY=1;exitDx=0;exitDy=0;entryX=0.5;entryY=0;entryDx=0;entryDy=0;" edge="1" parent="1" source="0EZqYTNdaghAj9sHrwn3-120" target="0EZqYTNdaghAj9sHrwn3-128">
          <mxGeometry relative="1" as="geometry" />
        </mxCell>
        <mxCell id="0EZqYTNdaghAj9sHrwn3-120" value="Router" style="rounded=1;whiteSpace=wrap;html=1;fillColor=#dae8fc;strokeColor=#6c8ebf;" vertex="1" parent="1">
          <mxGeometry x="3300" y="408.75" width="80" height="30" as="geometry" />
        </mxCell>
        <mxCell id="0EZqYTNdaghAj9sHrwn3-121" style="edgeStyle=orthogonalEdgeStyle;rounded=0;orthogonalLoop=1;jettySize=auto;html=1;exitX=0.5;exitY=1;exitDx=0;exitDy=0;entryX=0.5;entryY=0;entryDx=0;entryDy=0;" edge="1" parent="1" source="0EZqYTNdaghAj9sHrwn3-123" target="0EZqYTNdaghAj9sHrwn3-131">
          <mxGeometry relative="1" as="geometry">
            <mxPoint x="3540" y="468.75" as="targetPoint" />
          </mxGeometry>
        </mxCell>
        <mxCell id="0EZqYTNdaghAj9sHrwn3-122" style="edgeStyle=orthogonalEdgeStyle;rounded=0;orthogonalLoop=1;jettySize=auto;html=1;entryX=0;entryY=0.5;entryDx=0;entryDy=0;" edge="1" parent="1" source="0EZqYTNdaghAj9sHrwn3-123" target="0EZqYTNdaghAj9sHrwn3-132">
          <mxGeometry relative="1" as="geometry" />
        </mxCell>
        <mxCell id="0EZqYTNdaghAj9sHrwn3-123" value="Router" style="rounded=1;whiteSpace=wrap;html=1;fillColor=#dae8fc;strokeColor=#6c8ebf;" vertex="1" parent="1">
          <mxGeometry x="3500" y="408.75" width="80" height="30" as="geometry" />
        </mxCell>
        <mxCell id="0EZqYTNdaghAj9sHrwn3-124" style="edgeStyle=orthogonalEdgeStyle;rounded=0;orthogonalLoop=1;jettySize=auto;html=1;dashed=1;endArrow=none;endFill=1;startFill=0;" edge="1" parent="1" source="0EZqYTNdaghAj9sHrwn3-125" target="0EZqYTNdaghAj9sHrwn3-111">
          <mxGeometry relative="1" as="geometry" />
        </mxCell>
        <mxCell id="0EZqYTNdaghAj9sHrwn3-125" value="&lt;font style=&quot;font-size: 11px;&quot;&gt;Primary Server&lt;/font&gt;" style="shape=cylinder3;whiteSpace=wrap;html=1;boundedLbl=1;backgroundOutline=1;size=15;" vertex="1" parent="1">
          <mxGeometry x="3505" y="548.75" width="55" height="60" as="geometry" />
        </mxCell>
        <mxCell id="0EZqYTNdaghAj9sHrwn3-126" style="edgeStyle=orthogonalEdgeStyle;rounded=0;orthogonalLoop=1;jettySize=auto;html=1;entryX=0.5;entryY=1;entryDx=0;entryDy=0;" edge="1" parent="1" source="0EZqYTNdaghAj9sHrwn3-128" target="0EZqYTNdaghAj9sHrwn3-120">
          <mxGeometry relative="1" as="geometry" />
        </mxCell>
        <mxCell id="0EZqYTNdaghAj9sHrwn3-127" style="edgeStyle=orthogonalEdgeStyle;rounded=0;orthogonalLoop=1;jettySize=auto;html=1;" edge="1" parent="1" source="0EZqYTNdaghAj9sHrwn3-128">
          <mxGeometry relative="1" as="geometry">
            <mxPoint x="3540" y="438.75" as="targetPoint" />
            <Array as="points">
              <mxPoint x="3340" y="478.75" />
              <mxPoint x="3540" y="478.75" />
            </Array>
          </mxGeometry>
        </mxCell>
        <mxCell id="0EZqYTNdaghAj9sHrwn3-128" value="shard1-1" style="rounded=1;whiteSpace=wrap;html=1;fillColor=#dae8fc;strokeColor=#6c8ebf;" vertex="1" parent="1">
          <mxGeometry x="3300" y="518.75" width="80" height="30" as="geometry" />
        </mxCell>
        <mxCell id="0EZqYTNdaghAj9sHrwn3-129" style="edgeStyle=orthogonalEdgeStyle;rounded=0;orthogonalLoop=1;jettySize=auto;html=1;entryX=0.5;entryY=1;entryDx=0;entryDy=0;" edge="1" parent="1" source="0EZqYTNdaghAj9sHrwn3-131" target="0EZqYTNdaghAj9sHrwn3-123">
          <mxGeometry relative="1" as="geometry" />
        </mxCell>
        <mxCell id="0EZqYTNdaghAj9sHrwn3-130" style="edgeStyle=orthogonalEdgeStyle;rounded=0;orthogonalLoop=1;jettySize=auto;html=1;entryX=0.5;entryY=1;entryDx=0;entryDy=0;" edge="1" parent="1" source="0EZqYTNdaghAj9sHrwn3-131" target="0EZqYTNdaghAj9sHrwn3-132">
          <mxGeometry relative="1" as="geometry" />
        </mxCell>
        <mxCell id="0EZqYTNdaghAj9sHrwn3-131" value="shard1-2" style="rounded=1;whiteSpace=wrap;html=1;fillColor=#dae8fc;strokeColor=#6c8ebf;" vertex="1" parent="1">
          <mxGeometry x="3500" y="518.75" width="80" height="30" as="geometry" />
        </mxCell>
        <mxCell id="0EZqYTNdaghAj9sHrwn3-132" value="configSrv" style="rounded=1;whiteSpace=wrap;html=1;fillColor=#f8cecc;strokeColor=#b85450;" vertex="1" parent="1">
          <mxGeometry x="3680" y="378.75" width="80" height="30" as="geometry" />
        </mxCell>
        <mxCell id="0EZqYTNdaghAj9sHrwn3-133" value="&lt;font style=&quot;font-size: 55px;&quot;&gt;5&lt;/font&gt;" style="text;strokeColor=none;align=center;fillColor=none;html=1;verticalAlign=middle;whiteSpace=wrap;rounded=0;" vertex="1" parent="1">
          <mxGeometry x="3245" y="-490" width="60" height="25.75" as="geometry" />
        </mxCell>
        <mxCell id="0EZqYTNdaghAj9sHrwn3-134" value="&lt;p style=&quot;margin: 0px 0px 0px 13px; text-indent: -13px; font-variant-numeric: normal; font-variant-east-asian: normal; font-variant-alternates: normal; font-kerning: auto; font-optical-sizing: auto; font-feature-settings: normal; font-variation-settings: normal; font-variant-position: normal; font-stretch: normal; line-height: normal; color: rgb(14, 14, 14); text-align: start;&quot; class=&quot;p1&quot;&gt;&lt;font style=&quot;font-size: 9px;&quot;&gt;pymongo driver&lt;/font&gt;&lt;/p&gt;" style="rounded=1;whiteSpace=wrap;html=1;fillColor=#FF77BF;strokeColor=none;arcSize=50;" vertex="1" parent="1">
          <mxGeometry x="3420" y="373.75" width="70" height="20" as="geometry" />
        </mxCell>
        <mxCell id="0EZqYTNdaghAj9sHrwn3-135" value="&lt;p style=&quot;margin: 0px 0px 0px 13px; text-indent: -13px; font-variant-numeric: normal; font-variant-east-asian: normal; font-variant-alternates: normal; font-kerning: auto; font-optical-sizing: auto; font-feature-settings: normal; font-variation-settings: normal; font-variant-position: normal; font-stretch: normal; line-height: normal; color: rgb(14, 14, 14); text-align: start;&quot; class=&quot;p1&quot;&gt;&lt;font style=&quot;font-size: 9px;&quot;&gt;mongos&lt;/font&gt;&lt;/p&gt;" style="rounded=1;whiteSpace=wrap;html=1;fillColor=#FF77BF;strokeColor=none;arcSize=50;" vertex="1" parent="1">
          <mxGeometry x="3350" y="396.25" width="50" height="15" as="geometry" />
        </mxCell>
        <mxCell id="0EZqYTNdaghAj9sHrwn3-136" value="&lt;p style=&quot;margin: 0px 0px 0px 13px; text-indent: -13px; font-variant-numeric: normal; font-variant-east-asian: normal; font-variant-alternates: normal; font-kerning: auto; font-optical-sizing: auto; font-feature-settings: normal; font-variation-settings: normal; font-variant-position: normal; font-stretch: normal; line-height: normal; color: rgb(14, 14, 14); text-align: start;&quot; class=&quot;p1&quot;&gt;&lt;font style=&quot;font-size: 9px;&quot;&gt;mongos&lt;/font&gt;&lt;/p&gt;" style="rounded=1;whiteSpace=wrap;html=1;fillColor=#FF77BF;strokeColor=none;arcSize=50;" vertex="1" parent="1">
          <mxGeometry x="3550" y="393.75" width="50" height="15" as="geometry" />
        </mxCell>
        <mxCell id="0EZqYTNdaghAj9sHrwn3-137" value="&lt;p style=&quot;margin: 0px 0px 0px 13px; text-indent: -13px; font-variant-numeric: normal; font-variant-east-asian: normal; font-variant-alternates: normal; font-kerning: auto; font-optical-sizing: auto; font-feature-settings: normal; font-variation-settings: normal; font-variant-position: normal; font-stretch: normal; line-height: normal; color: rgb(14, 14, 14); text-align: start;&quot; class=&quot;p1&quot;&gt;&lt;font style=&quot;font-size: 9px;&quot;&gt;mongod&lt;/font&gt;&lt;/p&gt;" style="rounded=1;whiteSpace=wrap;html=1;fillColor=#FF77BF;strokeColor=none;arcSize=50;" vertex="1" parent="1">
          <mxGeometry x="3710" y="363.75" width="50" height="15" as="geometry" />
        </mxCell>
        <mxCell id="0EZqYTNdaghAj9sHrwn3-138" value="&lt;p style=&quot;margin: 0px 0px 0px 13px; text-indent: -13px; font-variant-numeric: normal; font-variant-east-asian: normal; font-variant-alternates: normal; font-kerning: auto; font-optical-sizing: auto; font-feature-settings: normal; font-variation-settings: normal; font-variant-position: normal; font-stretch: normal; line-height: normal; color: rgb(14, 14, 14); text-align: start;&quot; class=&quot;p1&quot;&gt;&lt;font style=&quot;font-size: 9px;&quot;&gt;mongod&lt;/font&gt;&lt;/p&gt;" style="rounded=1;whiteSpace=wrap;html=1;fillColor=#FF77BF;strokeColor=none;arcSize=50;" vertex="1" parent="1">
          <mxGeometry x="3350" y="503.75" width="50" height="15" as="geometry" />
        </mxCell>
        <mxCell id="0EZqYTNdaghAj9sHrwn3-139" value="&lt;p style=&quot;margin: 0px 0px 0px 13px; text-indent: -13px; font-variant-numeric: normal; font-variant-east-asian: normal; font-variant-alternates: normal; font-kerning: auto; font-optical-sizing: auto; font-feature-settings: normal; font-variation-settings: normal; font-variant-position: normal; font-stretch: normal; line-height: normal; color: rgb(14, 14, 14); text-align: start;&quot; class=&quot;p1&quot;&gt;&lt;font style=&quot;font-size: 9px;&quot;&gt;mongod&lt;/font&gt;&lt;/p&gt;" style="rounded=1;whiteSpace=wrap;html=1;fillColor=#FF77BF;strokeColor=none;arcSize=50;" vertex="1" parent="1">
          <mxGeometry x="3550" y="503.75" width="50" height="15" as="geometry" />
        </mxCell>
        <mxCell id="0EZqYTNdaghAj9sHrwn3-140" value="&lt;font style=&quot;font-size: 11px;&quot;&gt;Secondary Server&lt;/font&gt;" style="shape=cylinder3;whiteSpace=wrap;html=1;boundedLbl=1;backgroundOutline=1;size=15;" vertex="1" parent="1">
          <mxGeometry x="3305" y="618.75" width="55" height="60" as="geometry" />
        </mxCell>
        <mxCell id="0EZqYTNdaghAj9sHrwn3-141" value="&lt;font style=&quot;font-size: 11px;&quot;&gt;Secondary Server&lt;/font&gt;" style="shape=cylinder3;whiteSpace=wrap;html=1;boundedLbl=1;backgroundOutline=1;size=15;" vertex="1" parent="1">
          <mxGeometry x="3305" y="685.75" width="55" height="60" as="geometry" />
        </mxCell>
        <mxCell id="0EZqYTNdaghAj9sHrwn3-142" value="&lt;font style=&quot;font-size: 11px;&quot;&gt;Secondary Server&lt;/font&gt;" style="shape=cylinder3;whiteSpace=wrap;html=1;boundedLbl=1;backgroundOutline=1;size=15;" vertex="1" parent="1">
          <mxGeometry x="3505" y="618.75" width="55" height="60" as="geometry" />
        </mxCell>
        <mxCell id="0EZqYTNdaghAj9sHrwn3-143" value="&lt;font style=&quot;font-size: 11px;&quot;&gt;Secondary Server&lt;/font&gt;" style="shape=cylinder3;whiteSpace=wrap;html=1;boundedLbl=1;backgroundOutline=1;size=15;" vertex="1" parent="1">
          <mxGeometry x="3505" y="685.75" width="55" height="60" as="geometry" />
        </mxCell>
        <mxCell id="0EZqYTNdaghAj9sHrwn3-144" style="edgeStyle=orthogonalEdgeStyle;rounded=0;orthogonalLoop=1;jettySize=auto;html=1;exitX=0;exitY=0.5;exitDx=0;exitDy=0;exitPerimeter=0;entryX=1;entryY=0.5;entryDx=0;entryDy=0;entryPerimeter=0;endArrow=none;startFill=0;dashed=1;" edge="1" parent="1" source="0EZqYTNdaghAj9sHrwn3-142" target="0EZqYTNdaghAj9sHrwn3-140">
          <mxGeometry relative="1" as="geometry" />
        </mxCell>
        <mxCell id="0EZqYTNdaghAj9sHrwn3-145" style="edgeStyle=orthogonalEdgeStyle;rounded=0;orthogonalLoop=1;jettySize=auto;html=1;exitX=0;exitY=0.5;exitDx=0;exitDy=0;exitPerimeter=0;entryX=1;entryY=0.5;entryDx=0;entryDy=0;entryPerimeter=0;endArrow=none;startFill=0;dashed=1;" edge="1" parent="1" source="0EZqYTNdaghAj9sHrwn3-143" target="0EZqYTNdaghAj9sHrwn3-141">
          <mxGeometry relative="1" as="geometry" />
        </mxCell>
        <mxCell id="0EZqYTNdaghAj9sHrwn3-146" style="edgeStyle=orthogonalEdgeStyle;rounded=0;orthogonalLoop=1;jettySize=auto;html=1;exitX=1;exitY=0.5;exitDx=0;exitDy=0;entryX=0.877;entryY=-0.002;entryDx=0;entryDy=0;entryPerimeter=0;" edge="1" parent="1" source="0EZqYTNdaghAj9sHrwn3-147" target="0EZqYTNdaghAj9sHrwn3-117">
          <mxGeometry relative="1" as="geometry">
            <mxPoint x="3470" y="350.75" as="targetPoint" />
            <Array as="points">
              <mxPoint x="3520" y="165.75" />
              <mxPoint x="3520" y="277.75" />
              <mxPoint x="3470" y="277.75" />
            </Array>
          </mxGeometry>
        </mxCell>
        <mxCell id="0EZqYTNdaghAj9sHrwn3-147" value="Redis&lt;div&gt;Cache&lt;/div&gt;" style="rhombus;whiteSpace=wrap;html=1;" vertex="1" parent="1">
          <mxGeometry x="3400" y="125.75" width="80" height="80" as="geometry" />
        </mxCell>
        <mxCell id="0EZqYTNdaghAj9sHrwn3-148" style="edgeStyle=orthogonalEdgeStyle;rounded=0;orthogonalLoop=1;jettySize=auto;html=1;entryX=0.166;entryY=0.991;entryDx=0;entryDy=0;entryPerimeter=0;" edge="1" parent="1" source="0EZqYTNdaghAj9sHrwn3-147" target="0EZqYTNdaghAj9sHrwn3-112">
          <mxGeometry relative="1" as="geometry">
            <mxPoint x="3398" y="25.75" as="targetPoint" />
            <Array as="points">
              <mxPoint x="3360" y="165.75" />
              <mxPoint x="3360" y="75.75" />
              <mxPoint x="3400" y="75.75" />
            </Array>
          </mxGeometry>
        </mxCell>
        <mxCell id="0EZqYTNdaghAj9sHrwn3-149" value="&lt;p style=&quot;margin: 0px 0px 0px 13px; text-indent: -13px; font-variant-numeric: normal; font-variant-east-asian: normal; font-variant-alternates: normal; font-kerning: auto; font-optical-sizing: auto; font-feature-settings: normal; font-variation-settings: normal; font-variant-position: normal; font-stretch: normal; line-height: normal; color: rgb(14, 14, 14); text-align: start;&quot; class=&quot;p1&quot;&gt;&lt;font style=&quot;font-size: 9px;&quot;&gt;+&amp;nbsp;Expiration Policy&lt;/font&gt;&lt;/p&gt;" style="rounded=1;whiteSpace=wrap;html=1;fillColor=#e1d5e7;strokeColor=#9673a6;arcSize=50;" vertex="1" parent="1">
          <mxGeometry x="3440" y="193.75" width="50" height="33.5" as="geometry" />
        </mxCell>
        <mxCell id="0EZqYTNdaghAj9sHrwn3-150" value="database system" style="text;strokeColor=none;align=center;fillColor=none;html=1;verticalAlign=middle;whiteSpace=wrap;rounded=0;" vertex="1" parent="1">
          <mxGeometry x="3160" y="348.75" width="100" height="42" as="geometry" />
        </mxCell>
        <mxCell id="0EZqYTNdaghAj9sHrwn3-151" style="edgeStyle=orthogonalEdgeStyle;rounded=0;orthogonalLoop=1;jettySize=auto;html=1;" edge="1" parent="1" source="0EZqYTNdaghAj9sHrwn3-153">
          <mxGeometry relative="1" as="geometry">
            <mxPoint x="3440.0000000000005" y="-40" as="targetPoint" />
          </mxGeometry>
        </mxCell>
        <mxCell id="0EZqYTNdaghAj9sHrwn3-152" style="edgeStyle=orthogonalEdgeStyle;rounded=0;orthogonalLoop=1;jettySize=auto;html=1;entryX=0;entryY=0.5;entryDx=0;entryDy=0;" edge="1" parent="1" source="0EZqYTNdaghAj9sHrwn3-153" target="0EZqYTNdaghAj9sHrwn3-159">
          <mxGeometry relative="1" as="geometry" />
        </mxCell>
        <mxCell id="0EZqYTNdaghAj9sHrwn3-153" value="&lt;span style=&quot;box-sizing: inherit; color: rgba(0, 0, 0, 0.85); font-family: &amp;quot;YS Text&amp;quot;, sans-serif; font-size: 18px; text-align: start; white-space-collapse: preserve; background-color: rgb(255, 255, 255);&quot;&gt;APISIX Gateway&lt;/span&gt;" style="rounded=1;whiteSpace=wrap;html=1;" vertex="1" parent="1">
          <mxGeometry x="3380" y="-190" width="120" height="60" as="geometry" />
        </mxCell>
        <mxCell id="0EZqYTNdaghAj9sHrwn3-154" style="edgeStyle=orthogonalEdgeStyle;rounded=0;orthogonalLoop=1;jettySize=auto;html=1;entryX=0.5;entryY=1;entryDx=0;entryDy=0;dashed=1;" edge="1" parent="1" source="0EZqYTNdaghAj9sHrwn3-155" target="0EZqYTNdaghAj9sHrwn3-159">
          <mxGeometry relative="1" as="geometry" />
        </mxCell>
        <mxCell id="0EZqYTNdaghAj9sHrwn3-155" value="pymongo-api" style="rounded=1;whiteSpace=wrap;html=1;" vertex="1" parent="1">
          <mxGeometry x="3390" y="-24.25" width="120" height="60" as="geometry" />
        </mxCell>
        <mxCell id="0EZqYTNdaghAj9sHrwn3-170" style="edgeStyle=orthogonalEdgeStyle;rounded=0;orthogonalLoop=1;jettySize=auto;html=1;entryX=0.5;entryY=0;entryDx=0;entryDy=0;" edge="1" parent="1" source="0EZqYTNdaghAj9sHrwn3-158" target="0EZqYTNdaghAj9sHrwn3-168">
          <mxGeometry relative="1" as="geometry" />
        </mxCell>
        <mxCell id="0EZqYTNdaghAj9sHrwn3-158" value="User" style="shape=umlActor;verticalLabelPosition=middle;verticalAlign=middle;html=1;outlineConnect=0;align=right;horizontal=1;labelPosition=left;" vertex="1" parent="1">
          <mxGeometry x="3425" y="-580" width="30" height="60" as="geometry" />
        </mxCell>
        <mxCell id="0EZqYTNdaghAj9sHrwn3-159" value="Service Registery" style="rounded=1;whiteSpace=wrap;html=1;" vertex="1" parent="1">
          <mxGeometry x="3600" y="-190" width="120" height="60" as="geometry" />
        </mxCell>
        <mxCell id="0EZqYTNdaghAj9sHrwn3-160" value="Recieving IP adresses" style="text;strokeColor=none;align=center;fillColor=none;html=1;verticalAlign=middle;whiteSpace=wrap;rounded=0;" vertex="1" parent="1">
          <mxGeometry x="3510" y="-200" width="80" height="30" as="geometry" />
        </mxCell>
        <mxCell id="0EZqYTNdaghAj9sHrwn3-161" value="Registation" style="text;strokeColor=none;align=center;fillColor=none;html=1;verticalAlign=middle;whiteSpace=wrap;rounded=0;" vertex="1" parent="1">
          <mxGeometry x="3670" y="-54.25" width="80" height="30" as="geometry" />
        </mxCell>
        <mxCell id="0EZqYTNdaghAj9sHrwn3-162" value="&lt;p style=&quot;margin: 0px 0px 0px 13px; text-indent: -13px; font-variant-numeric: normal; font-variant-east-asian: normal; font-variant-alternates: normal; font-kerning: auto; font-optical-sizing: auto; font-feature-settings: normal; font-variation-settings: normal; font-variant-position: normal; font-stretch: normal; line-height: normal; color: rgb(14, 14, 14);&quot; class=&quot;p1&quot;&gt;&lt;font style=&quot;font-size: 9px;&quot;&gt;+consule_kv&lt;/font&gt;&lt;/p&gt;" style="rounded=1;whiteSpace=wrap;html=1;fillColor=#e1d5e7;strokeColor=#9673a6;arcSize=50;align=center;" vertex="1" parent="1">
          <mxGeometry x="3480" y="-170" width="60" height="20" as="geometry" />
        </mxCell>
        <mxCell id="0EZqYTNdaghAj9sHrwn3-163" value="&lt;p style=&quot;margin: 0px 0px 0px 13px; text-indent: -13px; font-variant-numeric: normal; font-variant-east-asian: normal; font-variant-alternates: normal; font-kerning: auto; font-optical-sizing: auto; font-feature-settings: normal; font-variation-settings: normal; font-variant-position: normal; font-stretch: normal; line-height: normal; color: rgb(14, 14, 14); text-align: start;&quot; class=&quot;p1&quot;&gt;&lt;font style=&quot;font-size: 9px;&quot;&gt;Consul&lt;/font&gt;&lt;/p&gt;" style="rounded=1;whiteSpace=wrap;html=1;fillColor=#FF77BF;strokeColor=none;arcSize=50;" vertex="1" parent="1">
          <mxGeometry x="3670" y="-200" width="50" height="15" as="geometry" />
        </mxCell>
        <mxCell id="0EZqYTNdaghAj9sHrwn3-164" value="CDN" style="ellipse;shape=cloud;whiteSpace=wrap;html=1;" vertex="1" parent="1">
          <mxGeometry x="3830" y="-310" width="120" height="80" as="geometry" />
        </mxCell>
        <mxCell id="0EZqYTNdaghAj9sHrwn3-175" style="edgeStyle=orthogonalEdgeStyle;rounded=0;orthogonalLoop=1;jettySize=auto;html=1;entryX=0.75;entryY=0;entryDx=0;entryDy=0;dashed=1;" edge="1" parent="1" source="0EZqYTNdaghAj9sHrwn3-165" target="0EZqYTNdaghAj9sHrwn3-153">
          <mxGeometry relative="1" as="geometry" />
        </mxCell>
        <mxCell id="0EZqYTNdaghAj9sHrwn3-165" value="CDN" style="ellipse;shape=cloud;whiteSpace=wrap;html=1;" vertex="1" parent="1">
          <mxGeometry x="3840" y="-300" width="120" height="80" as="geometry" />
        </mxCell>
        <mxCell id="0EZqYTNdaghAj9sHrwn3-171" style="edgeStyle=orthogonalEdgeStyle;rounded=0;orthogonalLoop=1;jettySize=auto;html=1;entryX=0.5;entryY=0;entryDx=0;entryDy=0;" edge="1" parent="1" source="0EZqYTNdaghAj9sHrwn3-168" target="0EZqYTNdaghAj9sHrwn3-153">
          <mxGeometry relative="1" as="geometry" />
        </mxCell>
        <mxCell id="0EZqYTNdaghAj9sHrwn3-168" value="&lt;span style=&quot;box-sizing: inherit; color: rgba(0, 0, 0, 0.85); font-family: &amp;quot;YS Text&amp;quot;, sans-serif; font-size: 18px; text-align: start; white-space-collapse: preserve; background-color: rgb(255, 255, 255);&quot;&gt;FE&lt;/span&gt;" style="rounded=1;whiteSpace=wrap;html=1;" vertex="1" parent="1">
          <mxGeometry x="3380" y="-400" width="120" height="60" as="geometry" />
        </mxCell>
        <mxCell id="0EZqYTNdaghAj9sHrwn3-169" value="&lt;p style=&quot;margin: 0px 0px 0px 13px; text-indent: -13px; font-variant-numeric: normal; font-variant-east-asian: normal; font-variant-alternates: normal; font-kerning: auto; font-optical-sizing: auto; font-feature-settings: normal; font-variation-settings: normal; font-variant-position: normal; font-stretch: normal; line-height: normal; color: rgb(14, 14, 14); text-align: start;&quot; class=&quot;p1&quot;&gt;&lt;font style=&quot;font-size: 9px;&quot;&gt;React/Nginx&lt;/font&gt;&lt;/p&gt;" style="rounded=1;whiteSpace=wrap;html=1;fillColor=#FF77BF;strokeColor=none;arcSize=50;" vertex="1" parent="1">
          <mxGeometry x="3450" y="-413" width="50" height="15" as="geometry" />
        </mxCell>
        <mxCell id="0EZqYTNdaghAj9sHrwn3-172" value="&lt;span style=&quot;box-sizing: inherit; color: rgba(0, 0, 0, 0.85); font-family: &amp;quot;YS Text&amp;quot;, sans-serif; font-size: 18px; text-align: start; white-space-collapse: preserve; background-color: rgb(255, 255, 255);&quot;&gt;FE&lt;/span&gt;" style="rounded=1;whiteSpace=wrap;html=1;" vertex="1" parent="1">
          <mxGeometry x="3390" y="-390" width="120" height="60" as="geometry" />
        </mxCell>
        <mxCell id="0EZqYTNdaghAj9sHrwn3-173" style="edgeStyle=orthogonalEdgeStyle;rounded=0;orthogonalLoop=1;jettySize=auto;html=1;entryX=0.625;entryY=0.2;entryDx=0;entryDy=0;entryPerimeter=0;" edge="1" parent="1" source="0EZqYTNdaghAj9sHrwn3-172" target="0EZqYTNdaghAj9sHrwn3-164">
          <mxGeometry relative="1" as="geometry" />
        </mxCell>
        <mxCell id="0EZqYTNdaghAj9sHrwn3-174" value="Getting cached static content" style="text;strokeColor=none;align=center;fillColor=none;html=1;verticalAlign=middle;whiteSpace=wrap;rounded=0;" vertex="1" parent="1">
          <mxGeometry x="3680" y="-400" width="80" height="30" as="geometry" />
        </mxCell>
      </root>
    </mxGraphModel>
  </diagram>
</mxfile>
